%FSLAX25Y25*%
%MOIN*%
G70*
G01*
G75*
G04 Layer_Physical_Order=2*
G04 Layer_Color=36540*
%ADD10C,0.00787*%
%ADD11R,0.03937X0.05906*%
%ADD12R,0.03543X0.00984*%
%ADD13O,0.06890X0.00787*%
%ADD14O,0.00787X0.06890*%
%ADD15O,0.01181X0.06890*%
%ADD16R,0.07874X0.01969*%
%ADD17R,0.07874X0.07874*%
%ADD18R,0.15748X0.04724*%
%ADD19O,0.08661X0.02362*%
%ADD20R,0.05906X0.03937*%
%ADD21R,0.04921X0.07874*%
%ADD22C,0.01575*%
G36*
X131890Y72835D02*
Y72835D01*
X131923Y72864D01*
X132917Y72733D01*
X133875Y72337D01*
X134698Y71706D01*
X135329Y70883D01*
X135725Y69925D01*
X135861Y68898D01*
X135845Y39492D01*
X135458Y39175D01*
X135236Y39219D01*
X134315Y39036D01*
X133533Y38514D01*
X133011Y37733D01*
X132828Y36811D01*
X133011Y35889D01*
X133533Y35108D01*
X134315Y34586D01*
X135236Y34402D01*
X135456Y34446D01*
X135842Y34129D01*
X135827Y6780D01*
X135386Y6544D01*
X134780Y6950D01*
X133858Y7133D01*
X132937Y6950D01*
X132155Y6427D01*
X131633Y5646D01*
X131450Y4724D01*
X131633Y3803D01*
X132155Y3021D01*
X132880Y2537D01*
X132767Y2050D01*
X131890Y1935D01*
X64920Y1953D01*
X64567Y2307D01*
Y2316D01*
X65489Y2499D01*
X66270Y3021D01*
X66792Y3803D01*
X66975Y4724D01*
X66792Y5646D01*
X66270Y6427D01*
X65489Y6950D01*
X64567Y7133D01*
X63645Y6950D01*
X62864Y6427D01*
X62342Y5646D01*
X62159Y4724D01*
X62342Y3803D01*
X62864Y3021D01*
X63645Y2499D01*
X63886Y2451D01*
X63837Y1954D01*
X11811Y1969D01*
Y70866D01*
X11811D01*
X11780Y70904D01*
X11925Y71634D01*
X12360Y72285D01*
X13011Y72720D01*
X13780Y72873D01*
X131890Y72835D01*
D02*
G37*
G36*
X168351Y72733D02*
X169308Y72337D01*
X170131Y71706D01*
X170762Y70883D01*
X171159Y69925D01*
X171289Y68931D01*
X171260Y68898D01*
X171260D01*
X171294Y5906D01*
X171159Y4878D01*
X170762Y3920D01*
X170131Y3098D01*
X169308Y2466D01*
X168351Y2070D01*
X167357Y1939D01*
X167323Y1969D01*
Y1969D01*
X141732Y1935D01*
X140705Y2070D01*
X140152Y2299D01*
X140157Y2316D01*
X141079Y2499D01*
X141860Y3021D01*
X142383Y3803D01*
X142566Y4724D01*
X142383Y5646D01*
X141860Y6427D01*
X141079Y6950D01*
X140157Y7133D01*
X139236Y6950D01*
X138454Y6427D01*
X138274Y6157D01*
X137795Y6302D01*
Y23622D01*
X137761Y68898D01*
X137897Y69925D01*
X138293Y70883D01*
X138924Y71706D01*
X139747Y72337D01*
X140705Y72733D01*
X141699Y72864D01*
X141732Y72835D01*
Y72835D01*
X167323Y72869D01*
X168351Y72733D01*
D02*
G37*
%LPC*%
G36*
X75984Y33511D02*
X75063Y33327D01*
X74281Y32805D01*
X73759Y32024D01*
X73576Y31102D01*
X73759Y30181D01*
X74281Y29399D01*
X74843Y29024D01*
Y28524D01*
X74675Y28412D01*
X74153Y27630D01*
X73970Y26709D01*
X74153Y25787D01*
X74675Y25006D01*
X75456Y24484D01*
X76378Y24300D01*
X77300Y24484D01*
X78081Y25006D01*
X78603Y25787D01*
X78786Y26709D01*
X78603Y27630D01*
X78081Y28412D01*
X77300Y28934D01*
X77263Y29116D01*
X77687Y29399D01*
X78209Y30181D01*
X78393Y31102D01*
X78209Y32024D01*
X77687Y32805D01*
X76906Y33327D01*
X75984Y33511D01*
D02*
G37*
G36*
X109055Y28983D02*
X108133Y28800D01*
X107352Y28278D01*
X106830Y27496D01*
X106647Y26575D01*
X106830Y25653D01*
X107352Y24872D01*
X108133Y24350D01*
X109055Y24166D01*
X109977Y24350D01*
X110758Y24872D01*
X111280Y25653D01*
X111464Y26575D01*
X111280Y27496D01*
X110758Y28278D01*
X109977Y28800D01*
X109055Y28983D01*
D02*
G37*
G36*
X106299Y24062D02*
X105377Y23879D01*
X104596Y23357D01*
X104074Y22575D01*
X103891Y21654D01*
X104074Y20732D01*
X104503Y20090D01*
X104225Y19674D01*
X103937Y19731D01*
X103015Y19548D01*
X102234Y19026D01*
X101712Y18245D01*
X101529Y17323D01*
X101712Y16401D01*
X102234Y15620D01*
X103015Y15098D01*
X103937Y14914D01*
X104859Y15098D01*
X105640Y15620D01*
X106162Y16401D01*
X106345Y17323D01*
X106162Y18245D01*
X105733Y18887D01*
X106011Y19302D01*
X106299Y19245D01*
X107221Y19428D01*
X108002Y19951D01*
X108524Y20732D01*
X108708Y21654D01*
X108524Y22575D01*
X108002Y23357D01*
X107221Y23879D01*
X106299Y24062D01*
D02*
G37*
G36*
X127559Y30361D02*
X126637Y30178D01*
X125856Y29656D01*
X125334Y28874D01*
X125151Y27953D01*
X125334Y27031D01*
X125856Y26250D01*
X126637Y25728D01*
X127559Y25544D01*
X128481Y25728D01*
X129262Y26250D01*
X129784Y27031D01*
X129967Y27953D01*
X129784Y28874D01*
X129262Y29656D01*
X128481Y30178D01*
X127559Y30361D01*
D02*
G37*
G36*
X76772Y39810D02*
X75850Y39627D01*
X75069Y39105D01*
X74546Y38323D01*
X74363Y37402D01*
X74546Y36480D01*
X75069Y35699D01*
X75850Y35176D01*
X76772Y34993D01*
X77693Y35176D01*
X78475Y35699D01*
X78997Y36480D01*
X79180Y37402D01*
X78997Y38323D01*
X78475Y39105D01*
X77693Y39627D01*
X76772Y39810D01*
D02*
G37*
G36*
X108268Y39023D02*
X107346Y38839D01*
X106565Y38317D01*
X106043Y37536D01*
X105859Y36614D01*
X106043Y35693D01*
X106565Y34911D01*
X107346Y34389D01*
X108268Y34206D01*
X109189Y34389D01*
X109971Y34911D01*
X110493Y35693D01*
X110676Y36614D01*
X110493Y37536D01*
X109971Y38317D01*
X109189Y38839D01*
X108268Y39023D01*
D02*
G37*
G36*
X145079Y31936D02*
X144157Y31753D01*
X143376Y31231D01*
X142854Y30449D01*
X142670Y29528D01*
X142854Y28606D01*
X143376Y27825D01*
X144157Y27302D01*
X145079Y27119D01*
X146000Y27302D01*
X146782Y27825D01*
X147304Y28606D01*
X147487Y29528D01*
X147304Y30449D01*
X146782Y31231D01*
X146000Y31753D01*
X145079Y31936D01*
D02*
G37*
G36*
X156693Y14613D02*
X155771Y14430D01*
X154990Y13908D01*
X154468Y13126D01*
X154284Y12205D01*
X154468Y11283D01*
X154990Y10502D01*
X155771Y9980D01*
X156693Y9796D01*
X157615Y9980D01*
X158396Y10502D01*
X158918Y11283D01*
X159101Y12205D01*
X158918Y13126D01*
X158396Y13908D01*
X157615Y14430D01*
X156693Y14613D01*
D02*
G37*
G36*
X44882Y18550D02*
X43960Y18367D01*
X43179Y17845D01*
X42657Y17063D01*
X42473Y16142D01*
X42657Y15220D01*
X43093Y14567D01*
X42657Y13914D01*
X42473Y12992D01*
X42657Y12070D01*
X43179Y11289D01*
X43960Y10767D01*
X44882Y10584D01*
X45804Y10767D01*
X46585Y11289D01*
X47107Y12070D01*
X47290Y12992D01*
X47107Y13914D01*
X46671Y14567D01*
X47107Y15220D01*
X47290Y16142D01*
X47107Y17063D01*
X46585Y17845D01*
X45804Y18367D01*
X44882Y18550D01*
D02*
G37*
G36*
X79724Y8314D02*
X78803Y8131D01*
X78021Y7609D01*
X77499Y6827D01*
X77316Y5906D01*
X77499Y4984D01*
X78021Y4202D01*
X78803Y3680D01*
X79724Y3497D01*
X80646Y3680D01*
X81428Y4202D01*
X81950Y4984D01*
X82133Y5906D01*
X81950Y6827D01*
X81428Y7609D01*
X80646Y8131D01*
X79724Y8314D01*
D02*
G37*
G36*
X117323Y12251D02*
X116401Y12068D01*
X115620Y11546D01*
X115098Y10764D01*
X114914Y9843D01*
X115098Y8921D01*
X115620Y8140D01*
X116401Y7617D01*
X117323Y7434D01*
X118245Y7617D01*
X119026Y8140D01*
X119548Y8921D01*
X119731Y9843D01*
X119548Y10764D01*
X119026Y11546D01*
X118245Y12068D01*
X117323Y12251D01*
D02*
G37*
G36*
X120276Y20912D02*
X119354Y20729D01*
X118572Y20207D01*
X118050Y19426D01*
X117867Y18504D01*
X118050Y17582D01*
X118572Y16801D01*
X119354Y16279D01*
X120276Y16095D01*
X121197Y16279D01*
X121979Y16801D01*
X122501Y17582D01*
X122684Y18504D01*
X122501Y19426D01*
X121979Y20207D01*
X121197Y20729D01*
X120276Y20912D01*
D02*
G37*
G36*
X155709Y24456D02*
X154787Y24272D01*
X154006Y23750D01*
X153483Y22969D01*
X153300Y22047D01*
X153483Y21126D01*
X154006Y20344D01*
X154787Y19822D01*
X155709Y19639D01*
X156630Y19822D01*
X157412Y20344D01*
X157934Y21126D01*
X158117Y22047D01*
X157934Y22969D01*
X157412Y23750D01*
X156630Y24272D01*
X155709Y24456D01*
D02*
G37*
G36*
X114567Y17015D02*
X113645Y16831D01*
X112864Y16309D01*
X112342Y15528D01*
X112158Y14606D01*
X112342Y13685D01*
X112864Y12903D01*
X113645Y12381D01*
X114567Y12198D01*
X115489Y12381D01*
X116270Y12903D01*
X116792Y13685D01*
X116975Y14606D01*
X116792Y15528D01*
X116270Y16309D01*
X115489Y16831D01*
X114567Y17015D01*
D02*
G37*
G36*
X82677Y19731D02*
X81756Y19548D01*
X80974Y19026D01*
X80452Y18245D01*
X80269Y17323D01*
X80452Y16401D01*
X80974Y15620D01*
X81756Y15098D01*
X82677Y14914D01*
X83599Y15098D01*
X84380Y15620D01*
X84902Y16401D01*
X85086Y17323D01*
X84902Y18245D01*
X84380Y19026D01*
X83599Y19548D01*
X82677Y19731D01*
D02*
G37*
G36*
X145276Y40794D02*
X144354Y40611D01*
X143573Y40089D01*
X143051Y39307D01*
X142867Y38386D01*
X143051Y37464D01*
X143573Y36683D01*
X144354Y36161D01*
X145276Y35977D01*
X146197Y36161D01*
X146979Y36683D01*
X147501Y37464D01*
X147684Y38386D01*
X147501Y39307D01*
X146979Y40089D01*
X146197Y40611D01*
X145276Y40794D01*
D02*
G37*
G36*
X96457Y66582D02*
X95535Y66398D01*
X94754Y65876D01*
X94231Y65095D01*
X94048Y64173D01*
X94231Y63252D01*
X94754Y62470D01*
X95535Y61948D01*
X96457Y61765D01*
X97378Y61948D01*
X98160Y62470D01*
X98682Y63252D01*
X98865Y64173D01*
X98682Y65095D01*
X98160Y65876D01*
X97378Y66398D01*
X96457Y66582D01*
D02*
G37*
G36*
X116142Y59101D02*
X115220Y58918D01*
X114439Y58396D01*
X113917Y57615D01*
X113733Y56693D01*
X113917Y55771D01*
X114439Y54990D01*
X115220Y54468D01*
X116142Y54284D01*
X117063Y54468D01*
X117845Y54990D01*
X118367Y55771D01*
X118550Y56693D01*
X118367Y57615D01*
X117845Y58396D01*
X117063Y58918D01*
X116142Y59101D01*
D02*
G37*
G36*
X167323Y53196D02*
X166401Y53013D01*
X165620Y52490D01*
X165098Y51709D01*
X164914Y50787D01*
X165098Y49866D01*
X165620Y49084D01*
X166401Y48562D01*
X167323Y48379D01*
X168245Y48562D01*
X169026Y49084D01*
X169548Y49866D01*
X169731Y50787D01*
X169548Y51709D01*
X169026Y52490D01*
X168245Y53013D01*
X167323Y53196D01*
D02*
G37*
G36*
X73819Y66975D02*
X72897Y66792D01*
X72116Y66270D01*
X71594Y65489D01*
X71410Y64567D01*
X71594Y63645D01*
X72116Y62864D01*
X72897Y62342D01*
X73819Y62158D01*
X74741Y62342D01*
X75522Y62864D01*
X76044Y63645D01*
X76227Y64567D01*
X76044Y65489D01*
X75522Y66270D01*
X74741Y66792D01*
X73819Y66975D01*
D02*
G37*
G36*
X131496Y71306D02*
X130574Y71123D01*
X129793Y70601D01*
X129271Y69819D01*
X129088Y68898D01*
X129271Y67976D01*
X129793Y67195D01*
X130574Y66672D01*
X131496Y66489D01*
X132418Y66672D01*
X133199Y67195D01*
X133721Y67976D01*
X133905Y68898D01*
X133721Y69819D01*
X133199Y70601D01*
X132418Y71123D01*
X131496Y71306D01*
D02*
G37*
G36*
X84646D02*
X83724Y71123D01*
X82943Y70601D01*
X82420Y69819D01*
X82237Y68898D01*
X82420Y67976D01*
X82943Y67195D01*
X83724Y66672D01*
X84646Y66489D01*
X85567Y66672D01*
X86349Y67195D01*
X86871Y67976D01*
X87054Y68898D01*
X86871Y69819D01*
X86349Y70601D01*
X85567Y71123D01*
X84646Y71306D01*
D02*
G37*
G36*
X152026Y70125D02*
X151104Y69942D01*
X150323Y69420D01*
X149801Y68638D01*
X149618Y67716D01*
X149801Y66795D01*
X150323Y66013D01*
X151104Y65491D01*
X152026Y65308D01*
X152948Y65491D01*
X153729Y66013D01*
X154251Y66795D01*
X154435Y67716D01*
X154251Y68638D01*
X153729Y69420D01*
X152948Y69942D01*
X152026Y70125D01*
D02*
G37*
G36*
X159449Y53196D02*
X158527Y53013D01*
X157746Y52490D01*
X157224Y51709D01*
X157040Y50787D01*
X157224Y49866D01*
X157746Y49084D01*
X158527Y48562D01*
X159449Y48379D01*
X160371Y48562D01*
X161152Y49084D01*
X161674Y49866D01*
X161857Y50787D01*
X161674Y51709D01*
X161152Y52490D01*
X160371Y53013D01*
X159449Y53196D01*
D02*
G37*
G36*
X85827Y44928D02*
X84905Y44745D01*
X84124Y44223D01*
X83602Y43441D01*
X83418Y42520D01*
X83602Y41598D01*
X84124Y40817D01*
X84905Y40295D01*
X85827Y40111D01*
X86748Y40295D01*
X87530Y40817D01*
X88052Y41598D01*
X88235Y42520D01*
X88052Y43441D01*
X87530Y44223D01*
X86748Y44745D01*
X85827Y44928D01*
D02*
G37*
G36*
X158760Y44436D02*
X157838Y44253D01*
X157057Y43731D01*
X156535Y42949D01*
X156351Y42028D01*
X156535Y41106D01*
X157057Y40325D01*
X157838Y39802D01*
X158760Y39619D01*
X159681Y39802D01*
X160463Y40325D01*
X160985Y41106D01*
X161168Y42028D01*
X160985Y42949D01*
X160463Y43731D01*
X159681Y44253D01*
X158760Y44436D01*
D02*
G37*
G36*
X46457Y42566D02*
X45535Y42383D01*
X44754Y41860D01*
X44232Y41079D01*
X44048Y40157D01*
X44232Y39236D01*
X44754Y38454D01*
X45535Y37932D01*
X46457Y37749D01*
X47378Y37932D01*
X48160Y38454D01*
X48682Y39236D01*
X48865Y40157D01*
X48682Y41079D01*
X48160Y41860D01*
X47378Y42383D01*
X46457Y42566D01*
D02*
G37*
G36*
X167323Y46109D02*
X166401Y45926D01*
X165620Y45404D01*
X165098Y44622D01*
X164914Y43701D01*
X165098Y42779D01*
X165620Y41998D01*
X166401Y41476D01*
X167323Y41292D01*
X168245Y41476D01*
X169026Y41998D01*
X169548Y42779D01*
X169731Y43701D01*
X169548Y44622D01*
X169026Y45404D01*
X168245Y45926D01*
X167323Y46109D01*
D02*
G37*
G36*
X78740Y50440D02*
X77819Y50257D01*
X77037Y49735D01*
X76515Y48953D01*
X76332Y48031D01*
X76515Y47110D01*
X77037Y46328D01*
X77819Y45806D01*
X78740Y45623D01*
X79662Y45806D01*
X80443Y46328D01*
X80965Y47110D01*
X81149Y48031D01*
X80965Y48953D01*
X80443Y49735D01*
X79662Y50257D01*
X78740Y50440D01*
D02*
G37*
G36*
X92323Y50243D02*
X91401Y50060D01*
X90620Y49538D01*
X90098Y48756D01*
X89914Y47835D01*
X90098Y46913D01*
X90620Y46132D01*
X91401Y45610D01*
X92323Y45426D01*
X93244Y45610D01*
X94026Y46132D01*
X94548Y46913D01*
X94731Y47835D01*
X94548Y48756D01*
X94026Y49538D01*
X93244Y50060D01*
X92323Y50243D01*
D02*
G37*
G36*
X120098Y48845D02*
X119177Y48662D01*
X118395Y48140D01*
X117873Y47359D01*
X117690Y46437D01*
X117873Y45515D01*
X118395Y44734D01*
X119177Y44212D01*
X120098Y44028D01*
X121020Y44212D01*
X121801Y44734D01*
X122324Y45515D01*
X122507Y46437D01*
X122324Y47359D01*
X121801Y48140D01*
X121020Y48662D01*
X120098Y48845D01*
D02*
G37*
%LPD*%
D22*
X63976Y28346D02*
D03*
X43851Y21654D02*
D03*
X48472Y29528D02*
D03*
X19291Y37008D02*
D03*
X22441Y52362D02*
D03*
X140551Y61417D02*
D03*
X140157Y19685D02*
D03*
X153347Y4528D02*
D03*
X144291Y26575D02*
D03*
Y35433D02*
D03*
X60630Y4921D02*
D03*
X22638Y40748D02*
D03*
Y28937D02*
D03*
X39327Y24311D02*
D03*
X40945Y14764D02*
D03*
Y17717D02*
D03*
X20276Y14764D02*
D03*
Y17717D02*
D03*
Y55118D02*
D03*
X29921D02*
D03*
Y53150D02*
D03*
X25591Y61811D02*
D03*
X74803Y47638D02*
D03*
X77953Y42520D02*
D03*
X94488Y37795D02*
D03*
X100787Y36220D02*
D03*
Y28346D02*
D03*
X83465Y21654D02*
D03*
X88583Y26181D02*
D03*
X83858Y30709D02*
D03*
X161909Y12087D02*
D03*
Y32126D02*
D03*
Y62126D02*
D03*
Y42126D02*
D03*
X121653Y3937D02*
D03*
X131890Y22835D02*
D03*
X134646Y61417D02*
D03*
X134646Y51575D02*
D03*
X116535Y52756D02*
D03*
X59449Y42520D02*
D03*
X62992Y36220D02*
D03*
M02*
