%FSLAX25Y25*%
%MOIN*%
G70*
G01*
G75*
G04 Layer_Physical_Order=3*
G04 Layer_Color=16440176*
%ADD10C,0.00787*%
%ADD11R,0.03937X0.05906*%
%ADD12R,0.03543X0.00984*%
%ADD13O,0.06890X0.00787*%
%ADD14O,0.00787X0.06890*%
%ADD15O,0.01181X0.06890*%
%ADD16R,0.07874X0.01969*%
%ADD17R,0.07874X0.07874*%
%ADD18R,0.15748X0.04724*%
%ADD19O,0.08661X0.02362*%
%ADD20R,0.05906X0.03937*%
%ADD21R,0.04921X0.07874*%
%ADD22C,0.01575*%
G36*
X131890Y72835D02*
Y72835D01*
X131923Y72864D01*
X132917Y72733D01*
X133875Y72337D01*
X134698Y71706D01*
X135329Y70883D01*
X135725Y69925D01*
X135861Y68898D01*
X135858Y63979D01*
X135471Y63661D01*
X134646Y63826D01*
X133724Y63643D01*
X132943Y63120D01*
X132421Y62339D01*
X132237Y61417D01*
X132421Y60496D01*
X132943Y59714D01*
X133724Y59192D01*
X134646Y59009D01*
X135469Y59173D01*
X135855Y58855D01*
X135853Y54137D01*
X135466Y53820D01*
X134646Y53983D01*
X133724Y53800D01*
X132943Y53278D01*
X132421Y52496D01*
X132237Y51575D01*
X132421Y50653D01*
X132943Y49872D01*
X133724Y49350D01*
X134646Y49166D01*
X135464Y49329D01*
X135850Y49012D01*
X135827Y5906D01*
X135827D01*
X135856Y5872D01*
X135725Y4878D01*
X135329Y3920D01*
X134698Y3098D01*
X133875Y2466D01*
X132917Y2070D01*
X131890Y1935D01*
X123688Y1937D01*
X123453Y2378D01*
X123879Y3015D01*
X124062Y3937D01*
X123879Y4859D01*
X123357Y5640D01*
X122575Y6162D01*
X121653Y6346D01*
X120732Y6162D01*
X119950Y5640D01*
X119428Y4859D01*
X119245Y3937D01*
X119428Y3015D01*
X119854Y2379D01*
X119618Y1938D01*
X11811Y1969D01*
Y70866D01*
X11811D01*
X11780Y70904D01*
X11925Y71634D01*
X12360Y72285D01*
X13011Y72720D01*
X13780Y72873D01*
X131890Y72835D01*
D02*
G37*
G36*
X168351Y72733D02*
X169308Y72337D01*
X170131Y71706D01*
X170762Y70883D01*
X171159Y69925D01*
X171289Y68931D01*
X171260Y68898D01*
X171260D01*
X171294Y5906D01*
X171159Y4878D01*
X170762Y3920D01*
X170131Y3098D01*
X169308Y2466D01*
X168351Y2070D01*
X167357Y1939D01*
X167323Y1969D01*
Y1969D01*
X154605Y1952D01*
X154459Y2430D01*
X155050Y2825D01*
X155572Y3606D01*
X155755Y4528D01*
X155572Y5449D01*
X155050Y6231D01*
X154268Y6753D01*
X153347Y6936D01*
X152425Y6753D01*
X151643Y6231D01*
X151121Y5449D01*
X150938Y4528D01*
X151121Y3606D01*
X151643Y2825D01*
X152239Y2427D01*
X152094Y1948D01*
X141732Y1935D01*
X140705Y2070D01*
X139747Y2466D01*
X138924Y3098D01*
X138293Y3920D01*
X137897Y4878D01*
X137766Y5872D01*
X137795Y5906D01*
X137795D01*
Y18107D01*
X138274Y18252D01*
X138454Y17982D01*
X139236Y17460D01*
X140157Y17277D01*
X141079Y17460D01*
X141860Y17982D01*
X142383Y18763D01*
X142566Y19685D01*
X142383Y20607D01*
X141860Y21388D01*
X141079Y21910D01*
X140157Y22094D01*
X139236Y21910D01*
X138454Y21388D01*
X138274Y21118D01*
X137795Y21263D01*
Y23622D01*
X137767Y60753D01*
X138265Y60803D01*
X138326Y60496D01*
X138848Y59714D01*
X139629Y59192D01*
X140551Y59009D01*
X141473Y59192D01*
X142254Y59714D01*
X142776Y60496D01*
X142960Y61417D01*
X142776Y62339D01*
X142254Y63120D01*
X141473Y63643D01*
X140551Y63826D01*
X139629Y63643D01*
X138848Y63120D01*
X138326Y62339D01*
X138264Y62027D01*
X137766Y62076D01*
X137761Y68898D01*
X137897Y69925D01*
X138293Y70883D01*
X138924Y71706D01*
X139747Y72337D01*
X140705Y72733D01*
X141699Y72864D01*
X141732Y72835D01*
Y72835D01*
X167323Y72869D01*
X168351Y72733D01*
D02*
G37*
%LPC*%
G36*
X144291Y28983D02*
X143370Y28800D01*
X142588Y28278D01*
X142066Y27496D01*
X141883Y26575D01*
X142066Y25653D01*
X142588Y24872D01*
X143370Y24350D01*
X144291Y24166D01*
X145213Y24350D01*
X145994Y24872D01*
X146517Y25653D01*
X146700Y26575D01*
X146517Y27496D01*
X145994Y28278D01*
X145213Y28800D01*
X144291Y28983D01*
D02*
G37*
G36*
X109055Y28983D02*
X108133Y28800D01*
X107352Y28278D01*
X106830Y27496D01*
X106647Y26575D01*
X106830Y25653D01*
X107352Y24872D01*
X108133Y24350D01*
X109055Y24166D01*
X109977Y24350D01*
X110758Y24872D01*
X111280Y25653D01*
X111464Y26575D01*
X111280Y27496D01*
X110758Y28278D01*
X109977Y28800D01*
X109055Y28983D01*
D02*
G37*
G36*
X88583Y28590D02*
X87661Y28406D01*
X86880Y27884D01*
X86357Y27103D01*
X86174Y26181D01*
X86357Y25259D01*
X86880Y24478D01*
X87661Y23956D01*
X88583Y23773D01*
X89504Y23956D01*
X90286Y24478D01*
X90808Y25259D01*
X90991Y26181D01*
X90808Y27103D01*
X90286Y27884D01*
X89504Y28406D01*
X88583Y28590D01*
D02*
G37*
G36*
X131890Y25243D02*
X130968Y25060D01*
X130187Y24538D01*
X129665Y23756D01*
X129481Y22835D01*
X129665Y21913D01*
X130187Y21132D01*
X130968Y20609D01*
X131890Y20426D01*
X132811Y20609D01*
X133593Y21132D01*
X134115Y21913D01*
X134298Y22835D01*
X134115Y23756D01*
X133593Y24538D01*
X132811Y25060D01*
X131890Y25243D01*
D02*
G37*
G36*
X39327Y26719D02*
X38405Y26536D01*
X37624Y26014D01*
X37102Y25233D01*
X36918Y24311D01*
X37102Y23389D01*
X37624Y22608D01*
X38405Y22086D01*
X39327Y21903D01*
X40249Y22086D01*
X41030Y22608D01*
X41552Y23389D01*
X41735Y24311D01*
X41552Y25233D01*
X41030Y26014D01*
X40249Y26536D01*
X39327Y26719D01*
D02*
G37*
G36*
X22638Y31345D02*
X21716Y31162D01*
X20935Y30640D01*
X20413Y29859D01*
X20229Y28937D01*
X20413Y28015D01*
X20935Y27234D01*
X21716Y26712D01*
X22638Y26528D01*
X23560Y26712D01*
X24341Y27234D01*
X24863Y28015D01*
X25046Y28937D01*
X24863Y29859D01*
X24341Y30640D01*
X23560Y31162D01*
X22638Y31345D01*
D02*
G37*
G36*
X48472Y31936D02*
X47550Y31753D01*
X46768Y31231D01*
X46246Y30449D01*
X46063Y29528D01*
X46246Y28606D01*
X46768Y27825D01*
X47550Y27302D01*
X48472Y27119D01*
X49393Y27302D01*
X50174Y27825D01*
X50697Y28606D01*
X50880Y29528D01*
X50697Y30449D01*
X50174Y31231D01*
X49393Y31753D01*
X48472Y31936D01*
D02*
G37*
G36*
X100787Y30755D02*
X99866Y30572D01*
X99084Y30049D01*
X98562Y29268D01*
X98379Y28346D01*
X98562Y27425D01*
X99084Y26643D01*
X99866Y26121D01*
X100787Y25938D01*
X101709Y26121D01*
X102490Y26643D01*
X103013Y27425D01*
X103196Y28346D01*
X103013Y29268D01*
X102490Y30049D01*
X101709Y30572D01*
X100787Y30755D01*
D02*
G37*
G36*
X75984Y33511D02*
X75063Y33327D01*
X74281Y32805D01*
X73759Y32024D01*
X73576Y31102D01*
X73759Y30181D01*
X74281Y29399D01*
X74843Y29024D01*
Y28524D01*
X74675Y28412D01*
X74153Y27630D01*
X73970Y26709D01*
X74153Y25787D01*
X74675Y25006D01*
X75456Y24484D01*
X76378Y24300D01*
X77300Y24484D01*
X78081Y25006D01*
X78603Y25787D01*
X78786Y26709D01*
X78603Y27630D01*
X78081Y28412D01*
X77519Y28787D01*
Y29287D01*
X77687Y29399D01*
X78209Y30181D01*
X78393Y31102D01*
X78209Y32024D01*
X77687Y32805D01*
X76906Y33327D01*
X75984Y33511D01*
D02*
G37*
G36*
X63976Y30755D02*
X63055Y30572D01*
X62273Y30049D01*
X61751Y29268D01*
X61568Y28346D01*
X61751Y27425D01*
X62273Y26643D01*
X63055Y26121D01*
X63976Y25938D01*
X64898Y26121D01*
X65679Y26643D01*
X66202Y27425D01*
X66385Y28346D01*
X66202Y29268D01*
X65679Y30049D01*
X64898Y30572D01*
X63976Y30755D01*
D02*
G37*
G36*
X43851Y24062D02*
X42930Y23879D01*
X42148Y23357D01*
X41626Y22575D01*
X41443Y21654D01*
X41626Y20732D01*
X41835Y20419D01*
X41557Y20003D01*
X40945Y20125D01*
X40023Y19942D01*
X39242Y19420D01*
X38720Y18638D01*
X38536Y17717D01*
X38720Y16795D01*
X39090Y16240D01*
X38720Y15686D01*
X38536Y14764D01*
X38720Y13842D01*
X39242Y13061D01*
X40023Y12539D01*
X40945Y12355D01*
X41867Y12539D01*
X42648Y13061D01*
X43170Y13842D01*
X43353Y14764D01*
X43170Y15686D01*
X42799Y16240D01*
X43170Y16795D01*
X43353Y17717D01*
X43170Y18638D01*
X42961Y18951D01*
X43239Y19367D01*
X43851Y19245D01*
X44773Y19428D01*
X45554Y19951D01*
X46077Y20732D01*
X46260Y21654D01*
X46077Y22575D01*
X45554Y23357D01*
X44773Y23879D01*
X43851Y24062D01*
D02*
G37*
G36*
X156693Y14613D02*
X155771Y14430D01*
X154990Y13908D01*
X154468Y13126D01*
X154284Y12205D01*
X154468Y11283D01*
X154990Y10502D01*
X155771Y9980D01*
X156693Y9796D01*
X157615Y9980D01*
X158396Y10502D01*
X158918Y11283D01*
X159039Y11893D01*
X159539D01*
X159684Y11165D01*
X160206Y10384D01*
X160988Y9861D01*
X161909Y9678D01*
X162831Y9861D01*
X163612Y10384D01*
X164135Y11165D01*
X164318Y12087D01*
X164135Y13008D01*
X163612Y13790D01*
X162831Y14312D01*
X161909Y14495D01*
X160988Y14312D01*
X160206Y13790D01*
X159684Y13008D01*
X159563Y12398D01*
X159063D01*
X158918Y13126D01*
X158396Y13908D01*
X157615Y14430D01*
X156693Y14613D01*
D02*
G37*
G36*
X114567Y17015D02*
X113645Y16831D01*
X112864Y16309D01*
X112342Y15528D01*
X112158Y14606D01*
X112342Y13685D01*
X112864Y12903D01*
X113645Y12381D01*
X114567Y12198D01*
X115489Y12381D01*
X116270Y12903D01*
X116792Y13685D01*
X116975Y14606D01*
X116792Y15528D01*
X116270Y16309D01*
X115489Y16831D01*
X114567Y17015D01*
D02*
G37*
G36*
X117323Y12251D02*
X116401Y12068D01*
X115620Y11546D01*
X115098Y10764D01*
X114914Y9843D01*
X115098Y8921D01*
X115620Y8140D01*
X116401Y7617D01*
X117323Y7434D01*
X118245Y7617D01*
X119026Y8140D01*
X119548Y8921D01*
X119731Y9843D01*
X119548Y10764D01*
X119026Y11546D01*
X118245Y12068D01*
X117323Y12251D01*
D02*
G37*
G36*
X60630Y7330D02*
X59708Y7146D01*
X58927Y6624D01*
X58405Y5843D01*
X58221Y4921D01*
X58405Y4000D01*
X58927Y3218D01*
X59708Y2696D01*
X60630Y2513D01*
X61552Y2696D01*
X62333Y3218D01*
X62855Y4000D01*
X63038Y4921D01*
X62855Y5843D01*
X62333Y6624D01*
X61552Y7146D01*
X60630Y7330D01*
D02*
G37*
G36*
X79724Y8314D02*
X78803Y8131D01*
X78021Y7609D01*
X77499Y6827D01*
X77316Y5906D01*
X77499Y4984D01*
X78021Y4202D01*
X78803Y3680D01*
X79724Y3497D01*
X80646Y3680D01*
X81428Y4202D01*
X81950Y4984D01*
X82133Y5906D01*
X81950Y6827D01*
X81428Y7609D01*
X80646Y8131D01*
X79724Y8314D01*
D02*
G37*
G36*
X106299Y24062D02*
X105377Y23879D01*
X104596Y23357D01*
X104074Y22575D01*
X103891Y21654D01*
X104074Y20732D01*
X104596Y19951D01*
X105377Y19428D01*
X106299Y19245D01*
X107221Y19428D01*
X108002Y19951D01*
X108524Y20732D01*
X108708Y21654D01*
X108524Y22575D01*
X108002Y23357D01*
X107221Y23879D01*
X106299Y24062D01*
D02*
G37*
G36*
X155709Y24456D02*
X154787Y24272D01*
X154006Y23750D01*
X153483Y22969D01*
X153300Y22047D01*
X153483Y21126D01*
X154006Y20344D01*
X154787Y19822D01*
X155709Y19639D01*
X156630Y19822D01*
X157412Y20344D01*
X157934Y21126D01*
X158117Y22047D01*
X157934Y22969D01*
X157412Y23750D01*
X156630Y24272D01*
X155709Y24456D01*
D02*
G37*
G36*
X83465Y24062D02*
X82543Y23879D01*
X81761Y23357D01*
X81239Y22575D01*
X81056Y21654D01*
X81239Y20732D01*
X81761Y19951D01*
X82543Y19428D01*
X83465Y19245D01*
X84386Y19428D01*
X85168Y19951D01*
X85690Y20732D01*
X85873Y21654D01*
X85690Y22575D01*
X85168Y23357D01*
X84386Y23879D01*
X83465Y24062D01*
D02*
G37*
G36*
X20276Y20125D02*
X19354Y19942D01*
X18573Y19420D01*
X18050Y18638D01*
X17867Y17717D01*
X18050Y16795D01*
X18421Y16240D01*
X18050Y15686D01*
X17867Y14764D01*
X18050Y13842D01*
X18573Y13061D01*
X19354Y12539D01*
X20276Y12355D01*
X21197Y12539D01*
X21979Y13061D01*
X22501Y13842D01*
X22684Y14764D01*
X22501Y15686D01*
X22130Y16240D01*
X22501Y16795D01*
X22684Y17717D01*
X22501Y18638D01*
X21979Y19420D01*
X21197Y19942D01*
X20276Y20125D01*
D02*
G37*
G36*
X120276Y20912D02*
X119354Y20729D01*
X118572Y20207D01*
X118050Y19426D01*
X117867Y18504D01*
X118050Y17582D01*
X118572Y16801D01*
X119354Y16279D01*
X120276Y16095D01*
X121197Y16279D01*
X121979Y16801D01*
X122501Y17582D01*
X122684Y18504D01*
X122501Y19426D01*
X121979Y20207D01*
X121197Y20729D01*
X120276Y20912D01*
D02*
G37*
G36*
X83858Y33117D02*
X82937Y32934D01*
X82155Y32412D01*
X81633Y31630D01*
X81450Y30709D01*
X81633Y29787D01*
X82155Y29006D01*
X82937Y28484D01*
X83858Y28300D01*
X84780Y28484D01*
X85561Y29006D01*
X86083Y29787D01*
X86267Y30709D01*
X86083Y31630D01*
X85561Y32412D01*
X84780Y32934D01*
X83858Y33117D01*
D02*
G37*
G36*
X20276Y57527D02*
X19354Y57343D01*
X18573Y56821D01*
X18050Y56040D01*
X17867Y55118D01*
X18050Y54196D01*
X18573Y53415D01*
X19354Y52893D01*
X19761Y52812D01*
X20039Y52396D01*
X20032Y52362D01*
X20216Y51441D01*
X20738Y50659D01*
X21519Y50137D01*
X22441Y49954D01*
X23363Y50137D01*
X24144Y50659D01*
X24666Y51441D01*
X24849Y52362D01*
X24666Y53284D01*
X24144Y54065D01*
X23363Y54587D01*
X22955Y54668D01*
X22677Y55084D01*
X22684Y55118D01*
X22501Y56040D01*
X21979Y56821D01*
X21197Y57343D01*
X20276Y57527D01*
D02*
G37*
G36*
X116142Y59101D02*
X115220Y58918D01*
X114439Y58396D01*
X113917Y57615D01*
X113733Y56693D01*
X113917Y55771D01*
X114439Y54990D01*
X114662Y54840D01*
X114760Y54350D01*
X114310Y53678D01*
X114127Y52756D01*
X114310Y51834D01*
X114832Y51053D01*
X115614Y50531D01*
X116535Y50347D01*
X117457Y50531D01*
X118238Y51053D01*
X118761Y51834D01*
X118944Y52756D01*
X118761Y53678D01*
X118238Y54459D01*
X118015Y54608D01*
X117918Y55099D01*
X118367Y55771D01*
X118550Y56693D01*
X118367Y57615D01*
X117845Y58396D01*
X117063Y58918D01*
X116142Y59101D01*
D02*
G37*
G36*
X78740Y50440D02*
X77819Y50257D01*
X77037Y49735D01*
X76888Y49511D01*
X76397Y49413D01*
X75725Y49863D01*
X74803Y50046D01*
X73882Y49863D01*
X73100Y49341D01*
X72578Y48559D01*
X72395Y47638D01*
X72578Y46716D01*
X73100Y45935D01*
X73882Y45413D01*
X74803Y45229D01*
X75725Y45413D01*
X76506Y45935D01*
X76656Y46158D01*
X77146Y46256D01*
X77819Y45806D01*
X78740Y45623D01*
X79662Y45806D01*
X80443Y46328D01*
X80965Y47110D01*
X81149Y48031D01*
X80965Y48953D01*
X80443Y49735D01*
X79662Y50257D01*
X78740Y50440D01*
D02*
G37*
G36*
X161909Y44535D02*
X160988Y44351D01*
X160261Y43865D01*
X159681Y44253D01*
X158760Y44436D01*
X157838Y44253D01*
X157057Y43731D01*
X156535Y42949D01*
X156351Y42028D01*
X156535Y41106D01*
X157057Y40325D01*
X157838Y39802D01*
X158760Y39619D01*
X159681Y39802D01*
X160408Y40288D01*
X160988Y39901D01*
X161909Y39718D01*
X162831Y39901D01*
X163612Y40423D01*
X164135Y41204D01*
X164318Y42126D01*
X164135Y43048D01*
X163612Y43829D01*
X162831Y44351D01*
X161909Y44535D01*
D02*
G37*
G36*
X120098Y48845D02*
X119177Y48662D01*
X118395Y48140D01*
X117873Y47359D01*
X117690Y46437D01*
X117873Y45515D01*
X118395Y44734D01*
X119177Y44212D01*
X120098Y44028D01*
X121020Y44212D01*
X121801Y44734D01*
X122324Y45515D01*
X122507Y46437D01*
X122324Y47359D01*
X121801Y48140D01*
X121020Y48662D01*
X120098Y48845D01*
D02*
G37*
G36*
X96457Y66582D02*
X95535Y66398D01*
X94754Y65876D01*
X94231Y65095D01*
X94048Y64173D01*
X94231Y63252D01*
X94754Y62470D01*
X95535Y61948D01*
X96457Y61765D01*
X97378Y61948D01*
X98160Y62470D01*
X98682Y63252D01*
X98865Y64173D01*
X98682Y65095D01*
X98160Y65876D01*
X97378Y66398D01*
X96457Y66582D01*
D02*
G37*
G36*
X152026Y70125D02*
X151104Y69942D01*
X150323Y69420D01*
X149801Y68638D01*
X149618Y67716D01*
X149801Y66795D01*
X150323Y66013D01*
X151104Y65491D01*
X152026Y65308D01*
X152948Y65491D01*
X153729Y66013D01*
X154251Y66795D01*
X154435Y67716D01*
X154251Y68638D01*
X153729Y69420D01*
X152948Y69942D01*
X152026Y70125D01*
D02*
G37*
G36*
X161909Y64534D02*
X160988Y64351D01*
X160206Y63829D01*
X159684Y63048D01*
X159501Y62126D01*
X159684Y61204D01*
X160206Y60423D01*
X160988Y59901D01*
X161909Y59718D01*
X162831Y59901D01*
X163612Y60423D01*
X164135Y61204D01*
X164318Y62126D01*
X164135Y63048D01*
X163612Y63829D01*
X162831Y64351D01*
X161909Y64534D01*
D02*
G37*
G36*
X29921Y57527D02*
X29000Y57343D01*
X28218Y56821D01*
X27696Y56040D01*
X27513Y55118D01*
X27696Y54196D01*
X27738Y54134D01*
X27696Y54071D01*
X27513Y53150D01*
X27696Y52228D01*
X28218Y51447D01*
X29000Y50924D01*
X29921Y50741D01*
X30843Y50924D01*
X31624Y51447D01*
X32146Y52228D01*
X32330Y53150D01*
X32146Y54071D01*
X32105Y54134D01*
X32146Y54196D01*
X32330Y55118D01*
X32146Y56040D01*
X31624Y56821D01*
X30843Y57343D01*
X29921Y57527D01*
D02*
G37*
G36*
X25591Y64219D02*
X24669Y64036D01*
X23888Y63514D01*
X23365Y62733D01*
X23182Y61811D01*
X23365Y60889D01*
X23888Y60108D01*
X24669Y59586D01*
X25591Y59403D01*
X26512Y59586D01*
X27294Y60108D01*
X27816Y60889D01*
X27999Y61811D01*
X27816Y62733D01*
X27294Y63514D01*
X26512Y64036D01*
X25591Y64219D01*
D02*
G37*
G36*
X85827Y44928D02*
X84905Y44745D01*
X84124Y44223D01*
X83602Y43441D01*
X83418Y42520D01*
X83602Y41598D01*
X84124Y40817D01*
X84905Y40295D01*
X85827Y40111D01*
X86748Y40295D01*
X87530Y40817D01*
X88052Y41598D01*
X88235Y42520D01*
X88052Y43441D01*
X87530Y44223D01*
X86748Y44745D01*
X85827Y44928D01*
D02*
G37*
G36*
X100787Y38629D02*
X99866Y38446D01*
X99084Y37923D01*
X98562Y37142D01*
X98379Y36220D01*
X98562Y35299D01*
X99084Y34517D01*
X99866Y33995D01*
X100787Y33812D01*
X101709Y33995D01*
X102490Y34517D01*
X103013Y35299D01*
X103196Y36220D01*
X103013Y37142D01*
X102490Y37923D01*
X101709Y38446D01*
X100787Y38629D01*
D02*
G37*
G36*
X76772Y39810D02*
X75850Y39627D01*
X75069Y39105D01*
X74546Y38323D01*
X74363Y37402D01*
X74546Y36480D01*
X75069Y35699D01*
X75850Y35176D01*
X76772Y34993D01*
X77693Y35176D01*
X78475Y35699D01*
X78997Y36480D01*
X79180Y37402D01*
X78997Y38323D01*
X78475Y39105D01*
X77693Y39627D01*
X76772Y39810D01*
D02*
G37*
G36*
X62992Y38629D02*
X62070Y38446D01*
X61289Y37923D01*
X60767Y37142D01*
X60584Y36220D01*
X60767Y35299D01*
X61289Y34517D01*
X62070Y33995D01*
X62992Y33812D01*
X63914Y33995D01*
X64695Y34517D01*
X65217Y35299D01*
X65401Y36220D01*
X65217Y37142D01*
X64695Y37923D01*
X63914Y38446D01*
X62992Y38629D01*
D02*
G37*
G36*
X161909Y34534D02*
X160988Y34351D01*
X160206Y33829D01*
X159684Y33048D01*
X159501Y32126D01*
X159684Y31204D01*
X160206Y30423D01*
X160988Y29901D01*
X161909Y29717D01*
X162831Y29901D01*
X163612Y30423D01*
X164135Y31204D01*
X164318Y32126D01*
X164135Y33048D01*
X163612Y33829D01*
X162831Y34351D01*
X161909Y34534D01*
D02*
G37*
G36*
X144291Y37842D02*
X143370Y37658D01*
X142588Y37136D01*
X142066Y36355D01*
X141883Y35433D01*
X142066Y34511D01*
X142588Y33730D01*
X143370Y33208D01*
X144291Y33025D01*
X145213Y33208D01*
X145994Y33730D01*
X146517Y34511D01*
X146700Y35433D01*
X146517Y36355D01*
X145994Y37136D01*
X145213Y37658D01*
X144291Y37842D01*
D02*
G37*
G36*
X59449Y44928D02*
X58527Y44745D01*
X57746Y44223D01*
X57224Y43441D01*
X57040Y42520D01*
X57224Y41598D01*
X57746Y40817D01*
X58527Y40295D01*
X59449Y40111D01*
X60370Y40295D01*
X61152Y40817D01*
X61674Y41598D01*
X61857Y42520D01*
X61674Y43441D01*
X61152Y44223D01*
X60370Y44745D01*
X59449Y44928D01*
D02*
G37*
G36*
X77953D02*
X77031Y44745D01*
X76250Y44223D01*
X75728Y43441D01*
X75544Y42520D01*
X75728Y41598D01*
X76250Y40817D01*
X77031Y40295D01*
X77953Y40111D01*
X78874Y40295D01*
X79656Y40817D01*
X80178Y41598D01*
X80361Y42520D01*
X80178Y43441D01*
X79656Y44223D01*
X78874Y44745D01*
X77953Y44928D01*
D02*
G37*
G36*
X22638Y43156D02*
X21716Y42973D01*
X20935Y42451D01*
X20413Y41670D01*
X20229Y40748D01*
X20413Y39826D01*
X20578Y39579D01*
X20224Y39226D01*
X20213Y39233D01*
X19291Y39416D01*
X18370Y39233D01*
X17588Y38711D01*
X17066Y37930D01*
X16883Y37008D01*
X17066Y36086D01*
X17588Y35305D01*
X18370Y34783D01*
X19291Y34599D01*
X20213Y34783D01*
X20994Y35305D01*
X21517Y36086D01*
X21700Y37008D01*
X21517Y37930D01*
X21351Y38177D01*
X21705Y38530D01*
X21716Y38523D01*
X22638Y38340D01*
X23560Y38523D01*
X24341Y39045D01*
X24863Y39826D01*
X25046Y40748D01*
X24863Y41670D01*
X24341Y42451D01*
X23560Y42973D01*
X22638Y43156D01*
D02*
G37*
G36*
X94488Y40204D02*
X93567Y40020D01*
X92785Y39498D01*
X92263Y38717D01*
X92080Y37795D01*
X92263Y36874D01*
X92785Y36092D01*
X93567Y35570D01*
X94488Y35387D01*
X95410Y35570D01*
X96191Y36092D01*
X96713Y36874D01*
X96897Y37795D01*
X96713Y38717D01*
X96191Y39498D01*
X95410Y40020D01*
X94488Y40204D01*
D02*
G37*
G36*
X46457Y42566D02*
X45535Y42383D01*
X44754Y41860D01*
X44232Y41079D01*
X44048Y40157D01*
X44232Y39236D01*
X44754Y38454D01*
X45535Y37932D01*
X46457Y37749D01*
X47378Y37932D01*
X48160Y38454D01*
X48682Y39236D01*
X48865Y40157D01*
X48682Y41079D01*
X48160Y41860D01*
X47378Y42383D01*
X46457Y42566D01*
D02*
G37*
%LPD*%
D22*
X44882Y12992D02*
D03*
Y16142D02*
D03*
X64567Y4724D02*
D03*
X140157D02*
D03*
X167323Y43701D02*
D03*
X159449Y50787D02*
D03*
X167323D02*
D03*
X145079Y29528D02*
D03*
X145276Y38386D02*
D03*
X73819Y64567D02*
D03*
X127559Y27953D02*
D03*
X135236Y36811D02*
D03*
X131496Y68898D02*
D03*
X84646D02*
D03*
X108268Y36614D02*
D03*
X92323Y47835D02*
D03*
X103937Y17323D02*
D03*
X82677D02*
D03*
X133858Y4724D02*
D03*
M02*
