%FSLAX25Y25*%
%MOIN*%
G70*
G01*
G75*
G04 Layer_Color=8388736*
%ADD10C,0.00787*%
%ADD11R,0.03937X0.05906*%
%ADD12R,0.03543X0.00984*%
%ADD13O,0.06890X0.00787*%
%ADD14O,0.00787X0.06890*%
%ADD15O,0.01181X0.06890*%
%ADD16R,0.07874X0.01969*%
%ADD17R,0.07874X0.07874*%
%ADD18R,0.15748X0.04724*%
%ADD19O,0.08661X0.02362*%
%ADD20R,0.05906X0.03937*%
%ADD21R,0.04921X0.07874*%
%ADD22C,0.01575*%
%ADD23R,0.03740X0.08465*%
%ADD24R,0.12795X0.08465*%
%ADD25R,0.05906X0.08661*%
%ADD26C,0.00591*%
%ADD27R,0.15354X0.03937*%
%ADD28R,0.02000X0.06000*%
%ADD29R,0.05512X0.05906*%
%ADD30R,0.00787X0.05906*%
%ADD31R,0.04537X0.06506*%
%ADD32R,0.04143X0.01584*%
%ADD33O,0.07490X0.01387*%
%ADD34O,0.01387X0.07490*%
%ADD35O,0.01781X0.07490*%
%ADD36R,0.08474X0.02569*%
%ADD37R,0.08474X0.08474*%
%ADD38R,0.16348X0.05324*%
%ADD39O,0.09261X0.02962*%
%ADD40R,0.06506X0.04537*%
%ADD41R,0.05521X0.08474*%
D31*
X140945Y37008D02*
D03*
X148819D02*
D03*
X123819Y36811D02*
D03*
X131693D02*
D03*
X59449Y12992D02*
D03*
X51575D02*
D03*
X131693Y27953D02*
D03*
X123819D02*
D03*
X29134Y70079D02*
D03*
X37008D02*
D03*
X51575Y29528D02*
D03*
X59449D02*
D03*
X29134Y61811D02*
D03*
X37008D02*
D03*
X140945Y27953D02*
D03*
X148819D02*
D03*
X46850Y21260D02*
D03*
X59449D02*
D03*
D32*
X59449Y40157D02*
D03*
Y36220D02*
D03*
X53937D02*
D03*
Y38189D02*
D03*
Y40157D02*
D03*
D33*
X69390Y48228D02*
D03*
Y46260D02*
D03*
Y44291D02*
D03*
Y42323D02*
D03*
Y40354D02*
D03*
Y38386D02*
D03*
Y36417D02*
D03*
Y34449D02*
D03*
Y32480D02*
D03*
Y30512D02*
D03*
Y28543D02*
D03*
Y26575D02*
D03*
Y24606D02*
D03*
Y22638D02*
D03*
Y20669D02*
D03*
Y18701D02*
D03*
X113287D02*
D03*
Y20669D02*
D03*
Y22638D02*
D03*
Y24606D02*
D03*
Y26575D02*
D03*
Y28543D02*
D03*
Y30512D02*
D03*
Y32480D02*
D03*
Y34449D02*
D03*
Y36417D02*
D03*
Y38386D02*
D03*
Y40354D02*
D03*
Y42323D02*
D03*
Y44291D02*
D03*
Y46260D02*
D03*
Y48228D02*
D03*
D34*
X76575Y11516D02*
D03*
X78543D02*
D03*
X80512D02*
D03*
X82480D02*
D03*
X84449D02*
D03*
X86417D02*
D03*
X88386D02*
D03*
X90354D02*
D03*
X92323D02*
D03*
X94291D02*
D03*
X96260D02*
D03*
X98228D02*
D03*
X100197D02*
D03*
X102165D02*
D03*
X104134D02*
D03*
X106102D02*
D03*
Y55413D02*
D03*
X104134D02*
D03*
X102165D02*
D03*
X100197D02*
D03*
X98228D02*
D03*
X96260D02*
D03*
X94291D02*
D03*
X92323D02*
D03*
X90354D02*
D03*
X88386D02*
D03*
X86417D02*
D03*
X84449D02*
D03*
X82480D02*
D03*
X80512D02*
D03*
X76575D02*
D03*
D35*
X78543D02*
D03*
D36*
X39327Y40453D02*
D03*
Y37303D02*
D03*
Y34154D02*
D03*
Y31004D02*
D03*
Y27854D02*
D03*
D37*
X14173Y15354D02*
D03*
Y52756D02*
D03*
X35827D02*
D03*
Y15354D02*
D03*
D38*
X164370Y7402D02*
D03*
Y17402D02*
D03*
Y27402D02*
D03*
Y37402D02*
D03*
Y57402D02*
D03*
Y67402D02*
D03*
D39*
X146514Y4606D02*
D03*
Y9606D02*
D03*
Y14606D02*
D03*
Y19606D02*
D03*
X127617Y4606D02*
D03*
Y9606D02*
D03*
Y14606D02*
D03*
Y19606D02*
D03*
X128347Y61437D02*
D03*
Y56437D02*
D03*
Y51437D02*
D03*
Y46437D02*
D03*
X147244Y61437D02*
D03*
Y56437D02*
D03*
Y51437D02*
D03*
Y46437D02*
D03*
D40*
X68898Y11811D02*
D03*
Y3937D02*
D03*
D41*
X49213Y61024D02*
D03*
Y49213D02*
D03*
X57874D02*
D03*
Y61024D02*
D03*
M02*
