%FSLAX25Y25*%
%MOIN*%
G70*
G01*
G75*
G04 Layer_Physical_Order=4*
G04 Layer_Color=16711680*
%ADD10C,0.00787*%
%ADD11R,0.03937X0.05906*%
%ADD12R,0.03543X0.00984*%
%ADD13O,0.06890X0.00787*%
%ADD14O,0.00787X0.06890*%
%ADD15O,0.01181X0.06890*%
%ADD16R,0.07874X0.01969*%
%ADD17R,0.07874X0.07874*%
%ADD18R,0.15748X0.04724*%
%ADD19O,0.08661X0.02362*%
%ADD20R,0.05906X0.03937*%
%ADD21R,0.04921X0.07874*%
%ADD22C,0.01575*%
%ADD23R,0.03740X0.08465*%
%ADD24R,0.12795X0.08465*%
%ADD25R,0.05906X0.08661*%
D10*
X134508Y51437D02*
G03*
X134646Y51575I0J138D01*
G01*
X129449Y19606D02*
G03*
X131890Y22047I0J2441D01*
G01*
X64173Y28346D02*
G03*
X62992Y29528I-1181J0D01*
G01*
X115354Y18110D02*
G03*
X112205Y14961I0J-3150D01*
G01*
X109449Y5906D02*
G03*
X112205Y8661I0J2756D01*
G01*
X117323Y9843D02*
G03*
X117559Y9606I236J0D01*
G01*
X161441Y16953D02*
G03*
X161902Y17446I-7071J7071D01*
G01*
X156693Y12205D02*
G03*
X158117Y13629I0J1424D01*
G01*
X163937Y57402D02*
G03*
X163858Y57480I-79J-0D01*
G01*
X163937Y57402D02*
G03*
X161525Y57106I0J-10000D01*
G01*
X156299Y57480D02*
G03*
X155176Y56357I0J-1123D01*
G01*
Y22580D02*
G03*
X155709Y22047I533J0D01*
G01*
X162913Y67323D02*
G03*
X162992Y67402I0J79D01*
G01*
X155512Y67323D02*
G03*
X153601Y65412I0J-1911D01*
G01*
X146514Y9606D02*
G03*
X153601Y16693I0J7087D01*
G01*
X148916Y14606D02*
G03*
X152026Y17717I0J3110D01*
G01*
X82677Y17323D02*
G03*
X80512Y15157I0J-2165D01*
G01*
X92323Y47835D02*
G03*
X92520Y47638I197J0D01*
G01*
X105118Y16535D02*
G03*
X104331Y17323I-787J0D01*
G01*
X122441Y48031D02*
G03*
X124016Y46457I1575J0D01*
G01*
X124547Y56437D02*
G03*
X122441Y54331I0J-2106D01*
G01*
X131890Y46063D02*
G03*
X130987Y46437I-903J-903D01*
G01*
X140945Y27953D02*
G03*
X142323Y26575I1378J0D01*
G01*
X148819Y27953D02*
G03*
X147244Y29528I-1575J0D01*
G01*
X122821Y36963D02*
G03*
X123819Y36811I998J3194D01*
G01*
X122582Y37048D02*
G03*
X122821Y36963I239J295D01*
G01*
X122441Y44094D02*
G03*
X120098Y46437I-2342J0D01*
G01*
X122582Y37048D02*
G03*
X122821Y36963I1237J3109D01*
G01*
X122441Y37343D02*
G03*
X122582Y37048I380J0D01*
G01*
X82185Y51476D02*
G03*
X78740Y48031I0J-3445D01*
G01*
X82480Y45866D02*
G03*
X85827Y42520I3347J0D01*
G01*
X128347Y51437D02*
X134508D01*
X127617Y19606D02*
X129449D01*
X88583Y11516D02*
Y21654D01*
X88484Y11417D02*
X88583Y11516D01*
X60236Y29528D02*
X62992D01*
X19291Y37008D02*
X22835D01*
X115354Y18110D02*
X120472D01*
X112205Y8661D02*
Y14961D01*
X79724Y5906D02*
X109449D01*
X117559Y9606D02*
X127617D01*
X88583Y21654D02*
Y26181D01*
X76484Y53573D02*
X82480Y59350D01*
X74410Y51575D02*
X76484Y53573D01*
X100787Y36220D02*
X104331D01*
X63976Y28346D02*
X64173D01*
X64173Y28346D01*
X72047Y21654D02*
X76378Y25984D01*
Y26709D01*
X88484Y11417D02*
X97244D01*
X108268Y36614D02*
X111811D01*
X49213Y6890D02*
Y14764D01*
X44882Y12992D02*
X48425D01*
X44882Y16142D02*
X48425D01*
X22441Y48819D02*
Y52362D01*
X129921Y4724D02*
X133465D01*
X158117Y13629D02*
Y27559D01*
X140157Y4724D02*
X143701D01*
X140157Y19685D02*
X143701D01*
X57087Y4921D02*
X60630D01*
X57087D02*
Y13780D01*
X22638Y40748D02*
Y44291D01*
Y28937D02*
Y32480D01*
X62992Y46063D02*
Y57087D01*
X66535Y42520D02*
X71653Y37402D01*
X62992Y46063D02*
X66535Y42520D01*
X62992Y57087D02*
X65748Y59842D01*
X73819Y61024D02*
Y64567D01*
X74803Y47638D02*
Y51181D01*
X74410Y42520D02*
X77953D01*
X94488Y37795D02*
Y41339D01*
X100787Y28346D02*
X104331D01*
X79921Y21654D02*
X83465D01*
X80315Y30709D02*
X83858D01*
X127953Y68898D02*
X131496D01*
X84646D02*
X88189D01*
X31890Y5906D02*
X48228D01*
X31890D02*
Y34646D01*
X99213Y51181D02*
X109193D01*
X109449Y51437D01*
X96457Y53937D02*
X99213Y51181D01*
X96063Y68898D02*
X96457Y68504D01*
X103347Y57284D02*
Y68898D01*
Y57284D02*
X104193Y56437D01*
X109449D01*
X115886D02*
X116142Y56693D01*
X109449Y56437D02*
X115886D01*
X46457Y34646D02*
Y40157D01*
X47244Y34646D02*
X52362Y29528D01*
X40945Y34646D02*
X46457D01*
X47244D01*
X46457Y40157D02*
Y46112D01*
X97244Y21654D02*
X106299D01*
X114567Y14606D02*
X127617D01*
X153601Y16693D02*
Y65412D01*
X152026Y17717D02*
Y67716D01*
X163937Y57402D02*
X164370D01*
X156299Y57480D02*
X163858D01*
X155176Y22580D02*
Y56357D01*
X155512Y67323D02*
X162913D01*
X162992Y67402D02*
X164370D01*
X146514Y14606D02*
X148916D01*
X151969Y67716D02*
X152026D01*
X158760Y37402D02*
Y42028D01*
Y37402D02*
X164370D01*
X105709Y61024D02*
X111221Y66535D01*
X105709Y60650D02*
Y61024D01*
X111221Y66535D02*
Y68898D01*
X120079D01*
X161800Y67106D02*
X161909D01*
X131890Y22047D02*
Y22835D01*
Y25591D01*
X123819Y27953D02*
X124016D01*
X131890Y37008D02*
X131890Y37008D01*
X131102Y61417D02*
X134646D01*
X124016Y27953D02*
X127559D01*
X48228Y5906D02*
X49213Y6890D01*
X80512Y11516D02*
Y15157D01*
X92323Y47835D02*
Y51476D01*
X105118Y11417D02*
Y16535D01*
X131693Y36811D02*
X135236D01*
X122441Y48031D02*
Y54331D01*
X124547Y56437D02*
X128347D01*
X124016Y46457D02*
X128347D01*
Y46437D02*
X130987D01*
X131890Y37008D02*
Y46063D01*
X142323Y26575D02*
X144291D01*
X145079Y29528D02*
X147244D01*
X159449Y47244D02*
Y50787D01*
X167323Y43701D02*
Y50787D01*
X109449Y46437D02*
X120098D01*
X123819Y36811D02*
X124803D01*
X122441Y37343D02*
Y44094D01*
X82480Y59350D02*
X92323D01*
X96457Y53937D02*
Y64173D01*
Y68504D01*
X86024Y28150D02*
Y42323D01*
X84449Y26575D02*
X86024Y28150D01*
X76512Y26575D02*
X84449D01*
X76378Y26709D02*
X76512Y26575D01*
X82185Y51476D02*
X82480D01*
X108760Y26870D02*
X110236Y28346D01*
X85827Y42520D02*
X86024Y42323D01*
X82480Y45866D02*
Y51476D01*
X72441Y30709D02*
X72835Y31102D01*
X75984D01*
X71653Y37402D02*
X76772D01*
D11*
X96457Y21654D02*
D03*
X88583D02*
D03*
X127953Y68898D02*
D03*
X120079D02*
D03*
X111221D02*
D03*
X103347D02*
D03*
X96063D02*
D03*
X88189D02*
D03*
X124016Y37008D02*
D03*
X131890D02*
D03*
X72441Y30709D02*
D03*
X80315D02*
D03*
X65748Y59842D02*
D03*
X73622D02*
D03*
X148819Y27953D02*
D03*
X140945D02*
D03*
X131890D02*
D03*
X124016D02*
D03*
X74410Y42520D02*
D03*
X66535D02*
D03*
X104331Y36220D02*
D03*
X112205D02*
D03*
X97244Y11417D02*
D03*
X105118D02*
D03*
X88386Y11516D02*
D03*
X80512D02*
D03*
X104331Y28346D02*
D03*
X112205D02*
D03*
X79921Y21654D02*
D03*
X72047D02*
D03*
X57087Y14764D02*
D03*
X49213D02*
D03*
X60236Y29528D02*
D03*
X52362D02*
D03*
X49213Y4921D02*
D03*
X57087D02*
D03*
X94882Y42126D02*
D03*
X82284D02*
D03*
X74410Y51575D02*
D03*
X61811D02*
D03*
D18*
X164370Y7402D02*
D03*
Y17402D02*
D03*
Y27402D02*
D03*
Y37402D02*
D03*
Y47402D02*
D03*
Y57402D02*
D03*
Y67402D02*
D03*
D19*
X128347Y61437D02*
D03*
Y56437D02*
D03*
Y51437D02*
D03*
Y46437D02*
D03*
X109449Y61437D02*
D03*
Y56437D02*
D03*
Y51437D02*
D03*
Y46437D02*
D03*
X146514Y19606D02*
D03*
Y14606D02*
D03*
Y9606D02*
D03*
Y4606D02*
D03*
X127617Y19606D02*
D03*
Y14606D02*
D03*
Y9606D02*
D03*
Y4606D02*
D03*
D20*
X82480Y59350D02*
D03*
Y51476D02*
D03*
X92323Y59350D02*
D03*
Y51476D02*
D03*
D22*
X63976Y28346D02*
D03*
X76378Y26709D02*
D03*
X44882Y12992D02*
D03*
Y16142D02*
D03*
X64567Y4724D02*
D03*
X43851Y21654D02*
D03*
X48472Y29528D02*
D03*
X19291Y37008D02*
D03*
X22441Y52362D02*
D03*
X140551Y61417D02*
D03*
X140157Y4724D02*
D03*
X167323Y43701D02*
D03*
X159449Y50787D02*
D03*
X167323D02*
D03*
X140157Y19685D02*
D03*
X153347Y4528D02*
D03*
X144291Y26575D02*
D03*
Y35433D02*
D03*
X145079Y29528D02*
D03*
X145276Y38386D02*
D03*
X60630Y4921D02*
D03*
X22638Y40748D02*
D03*
Y28937D02*
D03*
X39327Y24311D02*
D03*
X40945Y14764D02*
D03*
Y17717D02*
D03*
X20276Y14764D02*
D03*
Y17717D02*
D03*
Y55118D02*
D03*
X29921D02*
D03*
Y53150D02*
D03*
X25591Y61811D02*
D03*
X73819Y64567D02*
D03*
X74803Y47638D02*
D03*
X77953Y42520D02*
D03*
X94488Y37795D02*
D03*
X100787Y36220D02*
D03*
Y28346D02*
D03*
X83465Y21654D02*
D03*
X88583Y26181D02*
D03*
X83858Y30709D02*
D03*
X127559Y27953D02*
D03*
X135236Y36811D02*
D03*
X131496Y68898D02*
D03*
X84646D02*
D03*
X120098Y46437D02*
D03*
X116142Y56693D02*
D03*
X46457Y40157D02*
D03*
X109055Y26575D02*
D03*
X108268Y36614D02*
D03*
X92323Y47835D02*
D03*
X85827Y42520D02*
D03*
X106299Y21654D02*
D03*
X103937Y17323D02*
D03*
X82677D02*
D03*
X120276Y18504D02*
D03*
X114567Y14606D02*
D03*
X117323Y9843D02*
D03*
X79724Y5906D02*
D03*
X155709Y22047D02*
D03*
X152026Y67716D02*
D03*
X156693Y12205D02*
D03*
X158760Y42028D02*
D03*
X161909Y12087D02*
D03*
Y32126D02*
D03*
Y62126D02*
D03*
Y42126D02*
D03*
X133858Y4724D02*
D03*
X121653Y3937D02*
D03*
X131890Y22835D02*
D03*
X134646Y61417D02*
D03*
X134646Y51575D02*
D03*
X116535Y52756D02*
D03*
X96457Y64173D02*
D03*
X78740Y48031D02*
D03*
X59449Y42520D02*
D03*
X62992Y36220D02*
D03*
X75984Y31102D02*
D03*
X76772Y37402D02*
D03*
D23*
X22835Y34646D02*
D03*
X31890D02*
D03*
X40945D02*
D03*
D24*
X31890Y5906D02*
D03*
D25*
X46063Y46506D02*
D03*
X22441D02*
D03*
M02*
