%FSLAX25Y25*%
%MOIN*%
G70*
G01*
G75*
%ADD10C,0.00787*%
%ADD11R,0.03937X0.05906*%
%ADD12R,0.03543X0.00984*%
%ADD13O,0.06890X0.00787*%
%ADD14O,0.00787X0.06890*%
%ADD15O,0.01181X0.06890*%
%ADD16R,0.07874X0.01969*%
%ADD17R,0.07874X0.07874*%
%ADD18R,0.15748X0.04724*%
%ADD19O,0.08661X0.02362*%
%ADD20R,0.05906X0.03937*%
%ADD21R,0.04921X0.07874*%
%ADD22C,0.01575*%
%ADD23R,0.03740X0.08465*%
%ADD24R,0.12795X0.08465*%
%ADD25R,0.05906X0.08661*%
%ADD26C,0.00591*%
%ADD27R,0.15354X0.03937*%
%ADD28R,0.02000X0.06000*%
%ADD29R,0.05512X0.05906*%
%ADD30R,0.00787X0.05906*%
%ADD31R,0.04537X0.06506*%
%ADD32R,0.04143X0.01584*%
%ADD33O,0.07490X0.01387*%
%ADD34O,0.01387X0.07490*%
%ADD35O,0.01781X0.07490*%
%ADD36R,0.08474X0.02569*%
%ADD37R,0.08474X0.08474*%
%ADD38R,0.16348X0.05324*%
%ADD39O,0.09261X0.02962*%
%ADD40R,0.06506X0.04537*%
%ADD41R,0.05521X0.08474*%
%ADD42R,0.04340X0.09065*%
%ADD43R,0.13395X0.09065*%
%ADD44R,0.06506X0.09261*%
%ADD45R,0.06000X0.02000*%
%ADD46R,0.14764X0.07874*%
%ADD47C,0.01000*%
%ADD48C,0.00600*%
%ADD49C,0.00500*%
%ADD50C,0.02520*%
%ADD51C,0.01575*%
D49*
X63583Y28346D02*
X64370D01*
X63976Y27953D02*
Y28740D01*
X75984Y26709D02*
X76772D01*
X76378Y26315D02*
Y27102D01*
X44488Y12992D02*
X45276D01*
X44882Y12598D02*
Y13386D01*
X44488Y16142D02*
X45276D01*
X44882Y15748D02*
Y16535D01*
X64173Y4724D02*
X64961D01*
X64567Y4331D02*
Y5118D01*
X43458Y21654D02*
X44245D01*
X43851Y21260D02*
Y22047D01*
X48078Y29528D02*
X48865D01*
X48472Y29134D02*
Y29921D01*
X18898Y37008D02*
X19685D01*
X19291Y36614D02*
Y37402D01*
X22047Y52362D02*
X22835D01*
X22441Y51968D02*
Y52756D01*
X140157Y61417D02*
X140945D01*
X140551Y61024D02*
Y61811D01*
X139764Y4724D02*
X140551D01*
X140157Y4331D02*
Y5118D01*
X166929Y43701D02*
X167717D01*
X167323Y43307D02*
Y44094D01*
X159055Y50787D02*
X159843D01*
X159449Y50394D02*
Y51181D01*
X166929Y50787D02*
X167717D01*
X167323Y50394D02*
Y51181D01*
X139764Y19685D02*
X140551D01*
X140157Y19291D02*
Y20079D01*
X152953Y4528D02*
X153740D01*
X153347Y4134D02*
Y4921D01*
X143898Y26575D02*
X144685D01*
X144291Y26181D02*
Y26969D01*
X143898Y35433D02*
X144685D01*
X144291Y35039D02*
Y35827D01*
X144685Y29528D02*
X145473D01*
X145079Y29134D02*
Y29921D01*
X144882Y38386D02*
X145669D01*
X145276Y37992D02*
Y38780D01*
X60236Y4921D02*
X61024D01*
X60630Y4528D02*
Y5315D01*
X22244Y40748D02*
X23031D01*
X22638Y40354D02*
Y41142D01*
X22244Y28937D02*
X23031D01*
X22638Y28543D02*
Y29331D01*
X38933Y24311D02*
X39720D01*
X39327Y23917D02*
Y24705D01*
X40551Y14764D02*
X41339D01*
X40945Y14370D02*
Y15157D01*
X40551Y17717D02*
X41339D01*
X40945Y17323D02*
Y18110D01*
X19882Y14764D02*
X20669D01*
X20276Y14370D02*
Y15157D01*
X19882Y17717D02*
X20669D01*
X20276Y17323D02*
Y18110D01*
X19882Y55118D02*
X20669D01*
X20276Y54724D02*
Y55512D01*
X29528Y55118D02*
X30315D01*
X29921Y54724D02*
Y55512D01*
X29528Y53150D02*
X30315D01*
X29921Y52756D02*
Y53543D01*
X25197Y61811D02*
X25984D01*
X25591Y61417D02*
Y62205D01*
X73425Y64567D02*
X74213D01*
X73819Y64173D02*
Y64961D01*
X74410Y47638D02*
X75197D01*
X74803Y47244D02*
Y48031D01*
X77559Y42520D02*
X78347D01*
X77953Y42126D02*
Y42913D01*
X94095Y37795D02*
X94882D01*
X94488Y37402D02*
Y38189D01*
X100394Y36220D02*
X101181D01*
X100787Y35827D02*
Y36614D01*
X100394Y28346D02*
X101181D01*
X100787Y27953D02*
Y28740D01*
X83071Y21654D02*
X83858D01*
X83465Y21260D02*
Y22047D01*
X88189Y26181D02*
X88976D01*
X88583Y25787D02*
Y26575D01*
X83465Y30709D02*
X84252D01*
X83858Y30315D02*
Y31102D01*
X127165Y27953D02*
X127953D01*
X127559Y27559D02*
Y28346D01*
X134843Y36811D02*
X135630D01*
X135236Y36417D02*
Y37205D01*
X131102Y68898D02*
X131890D01*
X131496Y68504D02*
Y69291D01*
X84252Y68898D02*
X85039D01*
X84646Y68504D02*
Y69291D01*
X119705Y46437D02*
X120492D01*
X120098Y46043D02*
Y46831D01*
X115748Y56693D02*
X116535D01*
X116142Y56299D02*
Y57087D01*
X46063Y40157D02*
X46850D01*
X46457Y39764D02*
Y40551D01*
X108661Y26575D02*
X109449D01*
X109055Y26181D02*
Y26969D01*
X107874Y36614D02*
X108661D01*
X108268Y36220D02*
Y37008D01*
X91929Y47835D02*
X92716D01*
X92323Y47441D02*
Y48228D01*
X85433Y42520D02*
X86221D01*
X85827Y42126D02*
Y42913D01*
X105905Y21654D02*
X106693D01*
X106299Y21260D02*
Y22047D01*
X103543Y17323D02*
X104331D01*
X103937Y16929D02*
Y17717D01*
X82284Y17323D02*
X83071D01*
X82677Y16929D02*
Y17717D01*
X119882Y18504D02*
X120669D01*
X120276Y18110D02*
Y18898D01*
X114173Y14606D02*
X114961D01*
X114567Y14213D02*
Y15000D01*
X116929Y9843D02*
X117717D01*
X117323Y9449D02*
Y10236D01*
X79331Y5906D02*
X80118D01*
X79724Y5512D02*
Y6299D01*
X155315Y22047D02*
X156102D01*
X155709Y21654D02*
Y22441D01*
X151632Y67716D02*
X152420D01*
X152026Y67323D02*
Y68110D01*
X156299Y12205D02*
X157087D01*
X156693Y11811D02*
Y12598D01*
X158366Y42028D02*
X159153D01*
X158760Y41634D02*
Y42421D01*
X161516Y12087D02*
X162303D01*
X161909Y11693D02*
Y12480D01*
X161516Y32126D02*
X162303D01*
X161909Y31732D02*
Y32520D01*
X161516Y62126D02*
X162303D01*
X161909Y61732D02*
Y62520D01*
X161516Y42126D02*
X162303D01*
X161909Y41732D02*
Y42520D01*
X133465Y4724D02*
X134252D01*
X133858Y4331D02*
Y5118D01*
X121260Y3937D02*
X122047D01*
X121653Y3543D02*
Y4331D01*
X131496Y22835D02*
X132283D01*
X131890Y22441D02*
Y23228D01*
X134252Y61417D02*
X135039D01*
X134646Y61024D02*
Y61811D01*
X134252Y51575D02*
X135039D01*
X134646Y51181D02*
Y51968D01*
X116142Y52756D02*
X116929D01*
X116535Y52362D02*
Y53150D01*
X96063Y64173D02*
X96850D01*
X96457Y63779D02*
Y64567D01*
X78347Y48031D02*
X79134D01*
X78740Y47638D02*
Y48425D01*
X59055Y42520D02*
X59842D01*
X59449Y42126D02*
Y42913D01*
X62598Y36220D02*
X63386D01*
X62992Y35827D02*
Y36614D01*
X75590Y31102D02*
X76378D01*
X75984Y30709D02*
Y31496D01*
X76378Y37402D02*
X77165D01*
X76772Y37008D02*
Y37795D01*
M02*
