%FSLAX25Y25*%
%MOIN*%
G70*
G01*
G75*
G04 Layer_Physical_Order=1*
G04 Layer_Color=255*
%ADD10C,0.00787*%
%ADD11R,0.03937X0.05906*%
%ADD12R,0.03543X0.00984*%
%ADD13O,0.06890X0.00787*%
%ADD14O,0.00787X0.06890*%
%ADD15O,0.01181X0.06890*%
%ADD16R,0.07874X0.01969*%
%ADD17R,0.07874X0.07874*%
%ADD18R,0.15748X0.04724*%
%ADD19O,0.08661X0.02362*%
%ADD20R,0.05906X0.03937*%
%ADD21R,0.04921X0.07874*%
%ADD22C,0.01575*%
D10*
X111402Y57633D02*
G03*
X107735Y59842I-6284J-6284D01*
G01*
X116099Y52937D02*
G03*
X116099Y52936I437J437D01*
G01*
X118130Y51161D02*
G03*
X116535Y52756I-1595J0D01*
G01*
X116555Y46260D02*
G03*
X118130Y47835I0J1575D01*
G01*
X116099Y52936D02*
G03*
X116535Y52756I436J438D01*
G01*
X107735Y59842D02*
G03*
X105118Y60236I-2617J-8493D01*
G01*
X103543D02*
G03*
X102165Y58858I0J-1378D01*
G01*
X131693Y23310D02*
G03*
X131890Y22835I672J0D01*
G01*
X107090Y24074D02*
G03*
X110561Y22638I3471J3477D01*
G01*
X123269Y4606D02*
G03*
X121653Y3937I0J-2285D01*
G01*
X104252Y26911D02*
G03*
X100787Y28346I-3464J-3464D01*
G01*
X92323Y18299D02*
G03*
X89394Y25370I-10000J0D01*
G01*
X64961Y30512D02*
G03*
X64173Y29724I0J-787D01*
G01*
X64764Y28543D02*
G03*
X64173Y28346I0J-984D01*
G01*
X75787Y22638D02*
G03*
X73819Y24606I-1969J0D01*
G01*
Y20669D02*
G03*
X75787Y22638I0J1969D01*
G01*
X64173Y25394D02*
G03*
X64961Y24606I787J0D01*
G01*
X124547Y56437D02*
G03*
X122441Y54331I0J-2106D01*
G01*
X121260Y42126D02*
G03*
X120276Y39750I2376J-2376D01*
G01*
X78543Y8757D02*
G03*
X79723Y5907I4033J0D01*
G01*
X121260Y42126D02*
G03*
X122441Y44977I-2851J2851D01*
G01*
X108456Y5118D02*
G03*
X115527Y8047I0J10000D01*
G01*
X80512Y9606D02*
G03*
X81598Y6985I3707J0D01*
G01*
X82488Y6095D02*
G03*
X84846Y5118I2358J2358D01*
G01*
X79723Y5907D02*
G03*
X79724Y5906I2853J2850D01*
G01*
X106299Y21654D02*
G03*
X106102Y21178I475J-475D01*
G01*
X107087Y24077D02*
G03*
X107090Y24074I3474J3474D01*
G01*
X53546Y56690D02*
G03*
X57345Y55118I3799J3805D01*
G01*
X62992Y53150D02*
G03*
X61024Y55118I-1969J0D01*
G01*
X62992Y48031D02*
G03*
X64764Y46260I1772J0D01*
G01*
X40945Y68110D02*
G03*
X38976Y70079I-1969J0D01*
G01*
X49213Y61024D02*
G03*
X46457Y63779I-2756J0D01*
G01*
X40945Y65354D02*
G03*
X42520Y63779I1575J0D01*
G01*
X53543Y56693D02*
G03*
X53546Y56690I3802J3802D01*
G01*
X54051Y53657D02*
G03*
X52292Y54794I-3526J-3526D01*
G01*
X62604Y45104D02*
G03*
X64567Y44291I1963J1963D01*
G01*
X44882Y59842D02*
G03*
X42913Y61811I-1969J0D01*
G01*
X52292Y54794D02*
G03*
X50525Y55118I-1768J-4663D01*
G01*
X44882Y57480D02*
G03*
X47244Y55118I2362J0D01*
G01*
X39622Y34449D02*
G03*
X39327Y34154I0J-295D01*
G01*
X150420Y9606D02*
G03*
X156693Y12205I0J8872D01*
G01*
X66339Y22638D02*
G03*
X64370Y20669I0J-1969D01*
G01*
Y14567D02*
G03*
X67520Y11417I3150J0D01*
G01*
X148071Y14606D02*
G03*
X153926Y17455I0J7441D01*
G01*
D02*
G03*
X155512Y22047I-5855J4592D01*
G01*
X154331Y43996D02*
G03*
X156299Y42028I1969J0D01*
G01*
X154331Y54331D02*
G03*
X152618Y56043I-1713J0D01*
G01*
X105307Y6693D02*
G03*
X112378Y9622I0J10000D01*
G01*
X84449Y8071D02*
G03*
X85827Y6693I1378J0D01*
G01*
X112590Y9834D02*
G03*
X114567Y14606I-4772J4772D01*
G01*
X73622Y3150D02*
G03*
X74803Y1969I1181J0D01*
G01*
X73622Y17323D02*
G03*
X72244Y18701I-1378J0D01*
G01*
X111606Y1969D02*
G03*
X118677Y4897I0J10000D01*
G01*
X121260Y7401D02*
G03*
X120472Y6693I6246J-7741D01*
G01*
X127506Y9606D02*
G03*
X121260Y7401I0J-9947D01*
G01*
X111180Y3543D02*
G03*
X116962Y5938I0J8177D01*
G01*
X76575Y4921D02*
G03*
X77953Y3543I1378J0D01*
G01*
X118294Y7270D02*
G03*
X118299Y7275I-3361J3359D01*
G01*
X127617Y14606D02*
G03*
X124225Y13201I0J-4797D01*
G01*
X52616Y12539D02*
G03*
X52163Y12992I-453J0D01*
G01*
X82677Y17323D02*
G03*
X82480Y17126I0J-197D01*
G01*
X92323Y47835D02*
G03*
X92520Y47638I197J0D01*
G01*
X101969D02*
G03*
X104134Y49803I0J2165D01*
G01*
X104331Y17323D02*
G03*
X104134Y17126I0J-197D01*
G01*
X108268Y36614D02*
G03*
X108465Y36417I197J0D01*
G01*
X81693Y66730D02*
G03*
X78543Y63580I0J-3150D01*
G01*
X120098Y63913D02*
G03*
X117282Y66730I-2817J0D01*
G01*
X85039Y62205D02*
G03*
X82480Y59646I0J-2559D01*
G01*
X116142Y59449D02*
G03*
X113386Y62205I-2756J0D01*
G01*
X83071Y64173D02*
G03*
X80512Y61614I0J-2559D01*
G01*
X76575Y50197D02*
G03*
X78740Y48031I2165J0D01*
G01*
X106102Y29528D02*
G03*
X109055Y26575I2953J0D01*
G01*
X103937Y42520D02*
G03*
X106102Y44685I0J2165D01*
G01*
X60236Y29528D02*
G03*
X59842Y29134I0J-394D01*
G01*
X62402Y32480D02*
G03*
X59449Y29528I0J-2953D01*
G01*
X128347Y61417D02*
X134646D01*
X111402Y57633D02*
X116099Y52937D01*
X116099Y52936D01*
X118130Y47835D02*
Y51161D01*
X113287Y46260D02*
X116555D01*
X103543Y60236D02*
X105118D01*
X102165Y55413D02*
Y58858D01*
X131693Y23310D02*
Y27953D01*
X104252Y26911D02*
X107087Y24077D01*
X123269Y4606D02*
X127617D01*
X110561Y22638D02*
X113287D01*
X88583Y26181D02*
X89394Y25370D01*
X92323Y11516D02*
Y18299D01*
X64961Y30512D02*
X69390D01*
X64764Y28543D02*
X69390D01*
X64173Y28346D02*
Y29724D01*
Y25394D02*
Y28346D01*
X63976D02*
X64173D01*
X69390Y24606D02*
X73819D01*
X69390Y20669D02*
X73819D01*
X64961Y24606D02*
X69390D01*
X43851Y21654D02*
X47395D01*
X124547Y56437D02*
X128347D01*
X122441Y44977D02*
Y54331D01*
X120276Y18504D02*
Y39750D01*
X78543Y8757D02*
Y11516D01*
X115527Y8047D02*
X117323Y9843D01*
X80512Y9606D02*
Y11516D01*
X84846Y5118D02*
X108456D01*
X81598Y6985D02*
X82488Y6095D01*
X106102Y11516D02*
Y21178D01*
X57345Y55118D02*
X61024D01*
X49213Y61024D02*
X53543Y56693D01*
X64764Y46260D02*
X69390D01*
X62992Y48031D02*
Y53150D01*
X40945Y65354D02*
Y68110D01*
X37008Y70079D02*
X38976D01*
X42520Y63779D02*
X46457D01*
X54051Y53657D02*
X62604Y45104D01*
X64567Y44291D02*
X69390D01*
X44882Y57480D02*
Y59842D01*
X37008Y61811D02*
X42913D01*
X47244Y55118D02*
X50525D01*
X64173Y28346D02*
X64173Y28346D01*
X64961Y30512D02*
Y30512D01*
X39622Y34449D02*
X40945D01*
X57480Y34055D02*
X64302D01*
X41339D02*
X57480D01*
X53937Y34449D02*
Y36220D01*
X40945Y34449D02*
X41339Y34055D01*
X64302D02*
X64695Y34449D01*
X69390D01*
X113287Y32480D02*
Y34449D01*
X64567Y4724D02*
X68110D01*
X48472Y29528D02*
X52015D01*
X146514Y9606D02*
X150420D01*
X140551Y61417D02*
X144095D01*
X149803Y4528D02*
X153347D01*
X145079Y29528D02*
X148622D01*
X39327Y24311D02*
Y27854D01*
X37402Y14764D02*
X40945D01*
X37402Y17717D02*
X40945D01*
X16732Y14764D02*
X20276D01*
X16732Y17717D02*
X20276D01*
X16732Y55118D02*
X20276D01*
X29921D02*
X33465D01*
X29921Y53150D02*
X33465D01*
X25591Y61811D02*
X29134D01*
X69390Y42323D02*
X74606D01*
X46457Y40157D02*
X53937D01*
X39622D02*
X46457D01*
X39327Y40453D02*
X39622Y40157D01*
X36319Y40453D02*
X39327D01*
X64251Y38189D02*
X66023Y36417D01*
X59449Y38189D02*
X64251D01*
X66023Y36417D02*
X69390D01*
X53937Y38189D02*
X59449D01*
X59449Y38189D02*
X59449Y38189D01*
X59449Y38189D02*
Y40157D01*
X50394Y38189D02*
X53937D01*
X49508Y37303D02*
X50394Y38189D01*
X39327Y37303D02*
X49508D01*
X104134Y49803D02*
Y55413D01*
X106102Y44685D02*
Y55413D01*
X66339Y22638D02*
X69390D01*
X67520Y11417D02*
X68504D01*
X64370Y14567D02*
Y20669D01*
X124803Y19606D02*
X127617D01*
X124803Y46437D02*
X128347D01*
X146514Y14606D02*
X148071D01*
X155512Y22047D02*
X155709D01*
X152026Y67402D02*
X164370D01*
X156299Y42028D02*
X158760D01*
X148031Y56043D02*
X152618D01*
X154331Y43996D02*
Y54331D01*
X146063Y56043D02*
X148031D01*
X161909Y12087D02*
Y17106D01*
X160776Y67067D02*
X161909D01*
Y67106D01*
X85827Y6693D02*
X105307D01*
X84449Y8071D02*
Y11516D01*
X112378Y9622D02*
X112590Y9834D01*
X73622Y3150D02*
Y17323D01*
X74803Y1969D02*
X111606D01*
X69390Y18701D02*
X72244D01*
X118677Y4897D02*
X120472Y6693D01*
X127506Y9606D02*
X127617D01*
X77953Y3543D02*
X111180D01*
X76575Y4921D02*
Y11516D01*
X116962Y5938D02*
X118294Y7270D01*
X117628Y6604D02*
X118299Y7275D01*
X124225Y13201D01*
X131693Y27953D02*
Y36811D01*
X123819D02*
X124803D01*
X128347Y61417D02*
Y61437D01*
X123819Y27953D02*
X124803D01*
X127559D01*
X44882Y12992D02*
X51575D01*
X82480Y11516D02*
Y17126D01*
X104134Y11516D02*
Y17126D01*
X92520Y47638D02*
X101969D01*
X92323Y47835D02*
Y55413D01*
X124803Y19606D02*
Y27953D01*
Y36811D01*
X108465Y36417D02*
X113287D01*
X124803Y36811D02*
Y46437D01*
X140748Y26575D02*
X144291D01*
X140748Y35433D02*
X144291D01*
X161909Y27106D02*
Y32126D01*
Y37106D02*
Y42126D01*
Y57106D02*
Y62126D01*
X148819Y37008D02*
Y38386D01*
X145276D02*
X148819D01*
Y19606D02*
Y27953D01*
Y38386D02*
Y46437D01*
X78543Y55413D02*
Y63580D01*
X81693Y66730D02*
X117282D01*
X120098Y46437D02*
Y63913D01*
X82480Y55413D02*
Y59646D01*
X85039Y62205D02*
X113386D01*
X116142Y56693D02*
Y59449D01*
X80512Y55413D02*
Y61614D01*
X83071Y64173D02*
X96457D01*
X69390Y26575D02*
X76378D01*
X76575Y50197D02*
Y55413D01*
X109055Y26575D02*
X113287D01*
X85827Y42520D02*
X103937D01*
X106102Y29528D02*
Y44685D01*
X65945Y40354D02*
X69390D01*
X63779Y42520D02*
X65945Y40354D01*
X59449Y42520D02*
X63779D01*
X59449Y36220D02*
X62992D01*
X69390Y48228D02*
X74213D01*
X74803Y47638D01*
X76772Y37402D02*
Y40157D01*
X74606Y42323D02*
X76772Y40157D01*
X74415Y32672D02*
X75984Y31102D01*
X73379Y38386D02*
X74415Y37350D01*
Y32672D02*
Y37350D01*
X69390Y38386D02*
X73379D01*
X29134Y61811D02*
Y70079D01*
X62402Y32480D02*
X63189D01*
X69390D01*
X59842Y12598D02*
Y29134D01*
D11*
X140945Y37008D02*
D03*
X148819D02*
D03*
X123819Y36811D02*
D03*
X131693D02*
D03*
X59449Y12992D02*
D03*
X51575D02*
D03*
X131693Y27953D02*
D03*
X123819D02*
D03*
X29134Y70079D02*
D03*
X37008D02*
D03*
X51575Y29528D02*
D03*
X59449D02*
D03*
X29134Y61811D02*
D03*
X37008D02*
D03*
X140945Y27953D02*
D03*
X148819D02*
D03*
X46850Y21260D02*
D03*
X59449D02*
D03*
D12*
X59449Y40157D02*
D03*
Y36220D02*
D03*
X53937D02*
D03*
Y38189D02*
D03*
Y40157D02*
D03*
D13*
X69390Y48228D02*
D03*
Y46260D02*
D03*
Y44291D02*
D03*
Y42323D02*
D03*
Y40354D02*
D03*
Y38386D02*
D03*
Y36417D02*
D03*
Y34449D02*
D03*
Y32480D02*
D03*
Y30512D02*
D03*
Y28543D02*
D03*
Y26575D02*
D03*
Y24606D02*
D03*
Y22638D02*
D03*
Y20669D02*
D03*
Y18701D02*
D03*
X113287D02*
D03*
Y20669D02*
D03*
Y22638D02*
D03*
Y24606D02*
D03*
Y26575D02*
D03*
Y28543D02*
D03*
Y30512D02*
D03*
Y32480D02*
D03*
Y34449D02*
D03*
Y36417D02*
D03*
Y38386D02*
D03*
Y40354D02*
D03*
Y42323D02*
D03*
Y44291D02*
D03*
Y46260D02*
D03*
Y48228D02*
D03*
D14*
X76575Y11516D02*
D03*
X78543D02*
D03*
X80512D02*
D03*
X82480D02*
D03*
X84449D02*
D03*
X86417D02*
D03*
X88386D02*
D03*
X90354D02*
D03*
X92323D02*
D03*
X94291D02*
D03*
X96260D02*
D03*
X98228D02*
D03*
X100197D02*
D03*
X102165D02*
D03*
X104134D02*
D03*
X106102D02*
D03*
Y55413D02*
D03*
X104134D02*
D03*
X102165D02*
D03*
X100197D02*
D03*
X98228D02*
D03*
X96260D02*
D03*
X94291D02*
D03*
X92323D02*
D03*
X90354D02*
D03*
X88386D02*
D03*
X86417D02*
D03*
X84449D02*
D03*
X82480D02*
D03*
X80512D02*
D03*
X76575D02*
D03*
D15*
X78543D02*
D03*
D16*
X39327Y40453D02*
D03*
Y37303D02*
D03*
Y34154D02*
D03*
Y31004D02*
D03*
Y27854D02*
D03*
D17*
X14173Y15354D02*
D03*
Y52756D02*
D03*
X35827D02*
D03*
Y15354D02*
D03*
D18*
X164370Y7402D02*
D03*
Y17402D02*
D03*
Y27402D02*
D03*
Y37402D02*
D03*
Y57402D02*
D03*
Y67402D02*
D03*
D19*
X146514Y4606D02*
D03*
Y9606D02*
D03*
Y14606D02*
D03*
Y19606D02*
D03*
X127617Y4606D02*
D03*
Y9606D02*
D03*
Y14606D02*
D03*
Y19606D02*
D03*
X128347Y61437D02*
D03*
Y56437D02*
D03*
Y51437D02*
D03*
Y46437D02*
D03*
X147244Y61437D02*
D03*
Y56437D02*
D03*
Y51437D02*
D03*
Y46437D02*
D03*
D20*
X68898Y11811D02*
D03*
Y3937D02*
D03*
D21*
X49213Y61024D02*
D03*
Y49213D02*
D03*
X57874D02*
D03*
Y61024D02*
D03*
D22*
X63976Y28346D02*
D03*
X76378Y26709D02*
D03*
X44882Y12992D02*
D03*
Y16142D02*
D03*
X64567Y4724D02*
D03*
X43851Y21654D02*
D03*
X48472Y29528D02*
D03*
X19291Y37008D02*
D03*
X22441Y52362D02*
D03*
X140551Y61417D02*
D03*
X140157Y4724D02*
D03*
X167323Y43701D02*
D03*
X159449Y50787D02*
D03*
X167323D02*
D03*
X140157Y19685D02*
D03*
X153347Y4528D02*
D03*
X144291Y26575D02*
D03*
Y35433D02*
D03*
X145079Y29528D02*
D03*
X145276Y38386D02*
D03*
X60630Y4921D02*
D03*
X22638Y40748D02*
D03*
Y28937D02*
D03*
X39327Y24311D02*
D03*
X40945Y14764D02*
D03*
Y17717D02*
D03*
X20276Y14764D02*
D03*
Y17717D02*
D03*
Y55118D02*
D03*
X29921D02*
D03*
Y53150D02*
D03*
X25591Y61811D02*
D03*
X73819Y64567D02*
D03*
X74803Y47638D02*
D03*
X77953Y42520D02*
D03*
X94488Y37795D02*
D03*
X100787Y36220D02*
D03*
Y28346D02*
D03*
X83465Y21654D02*
D03*
X88583Y26181D02*
D03*
X83858Y30709D02*
D03*
X127559Y27953D02*
D03*
X135236Y36811D02*
D03*
X131496Y68898D02*
D03*
X84646D02*
D03*
X120098Y46437D02*
D03*
X116142Y56693D02*
D03*
X46457Y40157D02*
D03*
X109055Y26575D02*
D03*
X108268Y36614D02*
D03*
X92323Y47835D02*
D03*
X85827Y42520D02*
D03*
X106299Y21654D02*
D03*
X103937Y17323D02*
D03*
X82677D02*
D03*
X120276Y18504D02*
D03*
X114567Y14606D02*
D03*
X117323Y9843D02*
D03*
X79724Y5906D02*
D03*
X155709Y22047D02*
D03*
X152026Y67716D02*
D03*
X156693Y12205D02*
D03*
X158760Y42028D02*
D03*
X161909Y12087D02*
D03*
Y32126D02*
D03*
Y62126D02*
D03*
Y42126D02*
D03*
X133858Y4724D02*
D03*
X121653Y3937D02*
D03*
X131890Y22835D02*
D03*
X134646Y61417D02*
D03*
X134646Y51575D02*
D03*
X116535Y52756D02*
D03*
X96457Y64173D02*
D03*
X78740Y48031D02*
D03*
X59449Y42520D02*
D03*
X62992Y36220D02*
D03*
X75984Y31102D02*
D03*
X76772Y37402D02*
D03*
M02*
