M48
;Layer_Color=9474304
;FILE_FORMAT=2:5
INCH,TZ
;TYPE=PLATED
T1F00S00C0.00787
%
T01
X121653Y3937
X133858Y4724
X140157
X153347Y4528
X156693Y12205
X161909Y12087
X155709Y22047
X144291Y26575
X145079Y29528
X144291Y35433
X145276Y38386
X135236Y36811
X134646Y51575
X134646Y61417
X140551
X131496Y68898
X152026Y67716
X161909Y62126
X159449Y50787
X167323
Y43701
X161909Y42126
X158760Y42028
X161909Y32126
X140157Y19685
X131890Y22835
X127559Y27953
X120276Y18504
X120098Y46437
X116535Y52756
X116142Y56693
X96457Y64173
X84646Y68898
X73819Y64567
X74803Y47638
X78740Y48031
X77953Y42520
X76772Y37402
X75984Y31102
X76378Y26709
X83858Y30709
X88583Y26181
X83465Y21654
X82677Y17323
X79724Y5906
X64567Y4724
X60630Y4921
X44882Y12992
Y16142
X40945Y14764
Y17717
X43851Y21654
X39327Y24311
X48472Y29528
X46457Y40157
X59449Y42520
X62992Y36220
X63976Y28346
X85827Y42520
X92323Y47835
X94488Y37795
X100787Y36220
X108268Y36614
X109055Y26575
X106299Y21654
X103937Y17323
X114567Y14606
X117323Y9843
X100787Y28346
X22638Y28937
X19291Y37008
X22638Y40748
X22441Y52362
X20276Y55118
X29921
Y53150
X25591Y61811
X20276Y17717
Y14764
M30
