%FSLAX25Y25*%
%MOIN*%
G70*
G01*
G75*
G04 Layer_Color=16711935*
%ADD10C,0.00787*%
%ADD11R,0.03937X0.05906*%
%ADD12R,0.03543X0.00984*%
%ADD13O,0.06890X0.00787*%
%ADD14O,0.00787X0.06890*%
%ADD15O,0.01181X0.06890*%
%ADD16R,0.07874X0.01969*%
%ADD17R,0.07874X0.07874*%
%ADD18R,0.15748X0.04724*%
%ADD19O,0.08661X0.02362*%
%ADD20R,0.05906X0.03937*%
%ADD21R,0.04921X0.07874*%
%ADD22C,0.01575*%
%ADD23R,0.03740X0.08465*%
%ADD24R,0.12795X0.08465*%
%ADD25R,0.05906X0.08661*%
%ADD26C,0.00591*%
%ADD27R,0.15354X0.03937*%
%ADD28R,0.02000X0.06000*%
%ADD29R,0.05512X0.05906*%
%ADD30R,0.00787X0.05906*%
%ADD31R,0.04537X0.06506*%
%ADD32R,0.04143X0.01584*%
%ADD33O,0.07490X0.01387*%
%ADD34O,0.01387X0.07490*%
%ADD35O,0.01781X0.07490*%
%ADD36R,0.08474X0.02569*%
%ADD37R,0.08474X0.08474*%
%ADD38R,0.16348X0.05324*%
%ADD39O,0.09261X0.02962*%
%ADD40R,0.06506X0.04537*%
%ADD41R,0.05521X0.08474*%
%ADD42R,0.04340X0.09065*%
%ADD43R,0.13395X0.09065*%
%ADD44R,0.06506X0.09261*%
D31*
X96457Y21654D02*
D03*
X88583D02*
D03*
X127953Y68898D02*
D03*
X120079D02*
D03*
X111221D02*
D03*
X103347D02*
D03*
X96063D02*
D03*
X88189D02*
D03*
X124016Y37008D02*
D03*
X131890D02*
D03*
X72441Y30709D02*
D03*
X80315D02*
D03*
X65748Y59842D02*
D03*
X73622D02*
D03*
X148819Y27953D02*
D03*
X140945D02*
D03*
X131890D02*
D03*
X124016D02*
D03*
X74410Y42520D02*
D03*
X66535D02*
D03*
X104331Y36220D02*
D03*
X112205D02*
D03*
X97244Y11417D02*
D03*
X105118D02*
D03*
X88386Y11516D02*
D03*
X80512D02*
D03*
X104331Y28346D02*
D03*
X112205D02*
D03*
X79921Y21654D02*
D03*
X72047D02*
D03*
X57087Y14764D02*
D03*
X49213D02*
D03*
X60236Y29528D02*
D03*
X52362D02*
D03*
X49213Y4921D02*
D03*
X57087D02*
D03*
X94882Y42126D02*
D03*
X82284D02*
D03*
X74410Y51575D02*
D03*
X61811D02*
D03*
D38*
X164370Y7402D02*
D03*
Y17402D02*
D03*
Y27402D02*
D03*
Y37402D02*
D03*
Y47402D02*
D03*
Y57402D02*
D03*
Y67402D02*
D03*
D39*
X128347Y61437D02*
D03*
Y56437D02*
D03*
Y51437D02*
D03*
Y46437D02*
D03*
X109449Y61437D02*
D03*
Y56437D02*
D03*
Y51437D02*
D03*
Y46437D02*
D03*
X146514Y19606D02*
D03*
Y14606D02*
D03*
Y9606D02*
D03*
Y4606D02*
D03*
X127617Y19606D02*
D03*
Y14606D02*
D03*
Y9606D02*
D03*
Y4606D02*
D03*
D40*
X82480Y59350D02*
D03*
Y51476D02*
D03*
X92323Y59350D02*
D03*
Y51476D02*
D03*
D42*
X22835Y34646D02*
D03*
X31890D02*
D03*
X40945D02*
D03*
D43*
X31890Y5906D02*
D03*
D44*
X46063Y46506D02*
D03*
X22441D02*
D03*
M02*
