%FSLAX25Y25*%
%MOIN*%
G70*
G01*
G75*
G04 Layer_Color=16711935*
%ADD10C,0.00787*%
%ADD11R,0.03937X0.05906*%
%ADD12R,0.03543X0.00984*%
%ADD13O,0.06890X0.00787*%
%ADD14O,0.00787X0.06890*%
%ADD15O,0.01181X0.06890*%
%ADD16R,0.07874X0.01969*%
%ADD17R,0.07874X0.07874*%
%ADD18R,0.15748X0.04724*%
%ADD19O,0.08661X0.02362*%
%ADD20R,0.05906X0.03937*%
%ADD21R,0.04921X0.07874*%
%ADD22C,0.01575*%
%ADD23R,0.03740X0.08465*%
%ADD24R,0.12795X0.08465*%
%ADD25R,0.05906X0.08661*%
%ADD26C,0.00591*%
%ADD27R,0.15354X0.03937*%
%ADD28R,0.02000X0.06000*%
%ADD29R,0.05512X0.05906*%
%ADD30R,0.00787X0.05906*%
%ADD31R,0.04537X0.06506*%
%ADD32R,0.04143X0.01584*%
%ADD33O,0.07490X0.01387*%
%ADD34O,0.01387X0.07490*%
%ADD35O,0.01781X0.07490*%
%ADD36R,0.08474X0.02569*%
%ADD37R,0.08474X0.08474*%
%ADD38R,0.16348X0.05324*%
%ADD39O,0.09261X0.02962*%
%ADD40R,0.06506X0.04537*%
%ADD41R,0.05521X0.08474*%
%ADD42R,0.04340X0.09065*%
%ADD43R,0.13395X0.09065*%
%ADD44R,0.06506X0.09261*%
%ADD45R,0.06000X0.02000*%
%ADD46R,0.14764X0.07874*%
%ADD47C,0.01000*%
%ADD48C,0.00600*%
D47*
X173228Y-10842D02*
Y-1394D01*
X9843Y-10842D02*
Y-4921D01*
X110529Y-9843D02*
X173228D01*
X9843D02*
X69342D01*
X167228Y-7842D02*
X173228Y-9843D01*
X167228Y-11842D02*
X173228Y-9843D01*
X9843D02*
X15843Y-11842D01*
X9843Y-9843D02*
X15843Y-7842D01*
X-2937Y74709D02*
X5937D01*
X-2937Y-94D02*
X5937D01*
X-1937Y56301D02*
Y74709D01*
Y-94D02*
Y15113D01*
X-3937Y68709D02*
X-1937Y74709D01*
X63Y68709D01*
X-1937Y-94D02*
X63Y5906D01*
X-3937D02*
X-1937Y-94D01*
D48*
X73941Y-13442D02*
Y-7444D01*
X70942Y-10442D01*
X74940D01*
X76940Y-13442D02*
X78939D01*
X77939D01*
Y-7444D01*
X76940Y-8443D01*
X81938Y-13442D02*
Y-12442D01*
X82938D01*
Y-13442D01*
X81938D01*
X90935Y-7444D02*
X86936D01*
Y-10442D01*
X88936Y-9443D01*
X89935D01*
X90935Y-10442D01*
Y-12442D01*
X89935Y-13442D01*
X87936D01*
X86936Y-12442D01*
X92935Y-8443D02*
X93934Y-7444D01*
X95934D01*
X96933Y-8443D01*
Y-12442D01*
X95934Y-13442D01*
X93934D01*
X92935Y-12442D01*
Y-8443D01*
X98932Y-13442D02*
Y-9443D01*
X99932D01*
X100932Y-10442D01*
Y-13442D01*
Y-10442D01*
X101932Y-9443D01*
X102931Y-10442D01*
Y-13442D01*
X104931D02*
Y-9443D01*
X105930D01*
X106930Y-10442D01*
Y-13442D01*
Y-10442D01*
X107930Y-9443D01*
X108929Y-10442D01*
Y-13442D01*
X1662Y16713D02*
Y18713D01*
Y17713D01*
X-4336D01*
X-3336Y16713D01*
X662Y21712D02*
X1662Y22711D01*
Y24711D01*
X662Y25710D01*
X-3336D01*
X-4336Y24711D01*
Y22711D01*
X-3336Y21712D01*
X-2337D01*
X-1337Y22711D01*
Y25710D01*
X1662Y27710D02*
X662D01*
Y28709D01*
X1662D01*
Y27710D01*
X-3336Y32708D02*
X-4336Y33708D01*
Y35707D01*
X-3336Y36707D01*
X662D01*
X1662Y35707D01*
Y33708D01*
X662Y32708D01*
X-3336D01*
Y38706D02*
X-4336Y39706D01*
Y41705D01*
X-3336Y42705D01*
X662D01*
X1662Y41705D01*
Y39706D01*
X662Y38706D01*
X-3336D01*
X1662Y44704D02*
X-2337D01*
Y45704D01*
X-1337Y46703D01*
X1662D01*
X-1337D01*
X-2337Y47703D01*
X-1337Y48703D01*
X1662D01*
Y50702D02*
X-2337D01*
Y51702D01*
X-1337Y52702D01*
X1662D01*
X-1337D01*
X-2337Y53701D01*
X-1337Y54701D01*
X1662D01*
M02*
